<ttFont>
          <CharString index="0">
            -69 -40 callsubr
            368 111 vstem
            237 13 callsubr
            -93 -52 -94 -140 -178 vvcurveto
            -39 4 -42 12 -53 vhcurveto
            -41 53 -88 callsubr
            -92 callsubr
            98 -159 -94 callsubr
            return
          </CharString>
          <CharString index="1">
            87 -2 -21 536 -20 hstem
            262 58 rmoveto
            -11 73 -4 58 60 vvcurveto
            75 7 76 11 107 vhcurveto
            -200 -15 rlineto
            -133 11 -280 78 -94 vhcurveto
            -48 callgsubr
            104 79 57 141 53 hvcurveto
            7 hlineto
            20 -190 -80 callsubr
            11 -110 1 -15 -16 vvcurveto
            -114 -40 -141 -116 -26 vhcurveto
            return
          </CharString>
          <CharString index="2">
            18 callgsubr
            268 690 -105 callgsubr
            return
          </CharString>
          <CharString index="3">
            -70 callsubr
            238 539 -104 callgsubr
            return
          </CharString>
          <CharString index="4">
            93 -24 78 27 callgsubr
            hstemhm
            506 75 -75 90 hintmask 11010000
            611 -30 callgsubr
            -9 -464 rlineto
            -111 -2 -63 -26 -56 hhcurveto
            -67 -42 31 83 7 0 8 41 482 hvcurveto
            -238 -15 48 -443 27 callsubr
            18 92 -60 109 hhcurveto
            hintmask 11100000
            103 125 34 180 11 hvcurveto
            return
          </CharString>
          <CharString index="5">
            rmoveto
            -101 callsubr
            210 hmoveto
            -101 callsubr
            endchar
          </CharString>
          <CharString index="6">
            -46 35 -38 41 41 35 38 46 46 -35 38 -41 -41 -35 -38 -46 vhcurveto
            return
          </CharString>
          <CharString index="7">
            36 6 -21 554 -20 146 28 callgsubr
            hmoveto
            -45 callgsubr
            69 -166 90 15 -130 -13 callgsubr
            rlineto
            44 -126 rmoveto
            8 hlineto
            139 -335 -4 callgsubr
            return
          </CharString>
          <CharString index="8">
            rmoveto
            36 -5 30 -21 30 vhcurveto
            12 -31 -37 6 -26 -101 callgsubr
          </CharString>
          <CharString index="9">
            rmoveto
            -33 -98 -79 -20 -44 -7 rrcurveto
            -10 10 -9 31 23 vvcurveto
            26 8 17 6 12 vhcurveto
            6 36 30 1 42 18 18 -1 17 hhcurveto
            return
          </CharString>
          <CharString index="10">
            -27 -29 -21 36 83 631 -14 callsubr
            388 -50 rmoveto
            98 8 60 352 -190 -12 20 -219 rlineto
            -7 -30 -32 -3 -35 hhcurveto
            -36 -37 4 7 -35 -24 callgsubr
            -71 callgsubr
            hhcurveto
            18 18 1 2 18 hvcurveto
            return
          </CharString>
          <CharString index="11">
            -143 -24 87 476 4 callgsubr
            90 vstem
            237 13 callsubr
            -90 -50 -97 -142 -178 vvcurveto
            -39 4 -42 7 callsubr
            -34 40 83 -25 96 hhcurveto
            49 -81 callgsubr
            return
          </CharString>
          <CharString index="12">
            57 6 -21 538 -20 hstem
            116 -90 callsubr
            -13 2 -12 hhcurveto
            -75 -70 -72 -113 15 callsubr
            22 176 -58 callgsubr
            return
          </CharString>
          <CharString index="13">
            rmoveto
            -91 callsubr
            -39 callgsubr
            return
          </CharString>
          <CharString index="14">
            rmoveto
            -17 -39 -28 -9 -37 hhcurveto
            -25 -14 4 9 -22 hvcurveto
            16 33 31 33 62 32 -28 50 rcurveline
            -62 -35 -80 -47 -70 vvcurveto
            -79 96 -21 50 30 47 7 14 37 vhcurveto
            endchar
          </CharString>
          <CharString index="15">
            33 6 33 13 32 vhcurveto
            -7 30 45 -4 45 hhcurveto
            161 39 48 94 121 -133 78 -109 42 hvcurveto
            return
          </CharString>
          <CharString index="16">
            18 -30 15 -37 -48 vvcurveto
            -12 -1 -13 -2 -13 vhcurveto
            -8 -39 -54 -6 -51 hhcurveto
            -14 -15 0 1 -13 hvcurveto
            return
          </CharString>
          <CharString index="17">
            -15 rmoveto
            -46 callsubr
            11 -122 6 -104 -193 vvcurveto
            180 15 rlineto
            133 -11 290 -10 callsubr
            return
          </CharString>
          <CharString index="18">
            rmoveto
            23 -2 20 -7 20 vhcurveto
            92 63 -71 76 -67 -96 rlineto
            8 -20 -33 0 -12 -101 callgsubr
          </CharString>
          <CharString index="19">
            81 -18 104 -86 callsubr
            return
          </CharString>
          <CharString index="20">
            320 -5 callsubr
            258 21 callgsubr
            -229 -27 210 -653 110 15 114 322 153 -337 90 15 177 641 -90 24 -115 -508 -9 callgsubr
            -104 454 -80 24 -151 -474 -9 callgsubr
            return
          </CharString>
          <CharString index="21">
            -60 callsubr
            -69 callgsubr
            return
          </CharString>
          <CharString index="22">
            -19 callgsubr
            -180 -80 callgsubr
            72 24 callgsubr
            return
          </CharString>
          <CharString index="23">
            89 6 -21 536 -20 164 -20 hstem
            93 85 359 83 vstem
            642 -30 callgsubr
            -10 -489 -9 callgsubr
            -175 499 -242 -15 -27 -655 100 5 -3 521 rlineto
            8 hlineto
            324 -536 90 15 rlineto
            return
          </CharString>
          <CharString index="24">
            51 7 -21 691 -21 callsubr
            281 8 188 239 235 vvcurveto
            58 -11 57 -22 54 vhcurveto
            29 -60 -72 11 -73 hhcurveto
            -106 -107 -23 -24 -75 hvcurveto
            265 -20 rmoveto
            54 -32 29 -83 -95 vvcurveto
            -132 -55 -146 -127 -52 vhcurveto
            55 533 rlineto
            4 15 15 3 14 hhcurveto
            return
          </CharString>
          <CharString index="25">
            -74 callgsubr
            -36 callgsubr
          </CharString>
          <CharString index="26">
            7 -21 679 -20 hstem
            -70 callgsubr
            return
          </CharString>
          <CharString index="27">
            -47 callsubr
            -58 callgsubr
            return
          </CharString>
          <CharString index="28">
            -14 callgsubr
            -75 callsubr
            return
          </CharString>
          <CharString index="29">
            -133 6 -21 552 6 callgsubr
            14 113 rlineto
            174 22 45 48 87 hhcurveto
            18 19 -2 -3 22 hvcurveto
            28 213 -82 -7 -71 -66 -51 -110 rlinecurve
            -7 hlineto
            20 160 -58 callgsubr
            return
          </CharString>
          <CharString index="30">
            rmoveto
            -60 -125 204 -65 34 68 rlineto
            endchar
          </CharString>
          <CharString index="31">
            -237 vvcurveto
            -52 5 -55 12 -59 vhcurveto
            return
          </CharString>
          <CharString index="32">
            -47 -27 -56 -85 -11 hvcurveto
            60 -16 rlineto
            34 15 13 11 15 return
          </CharString>
          <CharString index="33">
            -71 callsubr
            -7 callgsubr
            return
          </CharString>
          <CharString index="34">
            62 30 callsubr
            213 -20 hstem
            121 -90 callsubr
            -12 13 callgsubr
            -83 -77 -87 -132 -53 hvcurveto
            -9 hlineto
            37 412 -58 callgsubr
            return
          </CharString>
          <CharString index="35">
            rmoveto
            7 92 rlineto
            -261 hlineto
            -7 -119 rlineto
            endchar
          </CharString>
          <CharString index="36">
            -62 callgsubr
            30 -2 28 -5 26 vhcurveto
            return
          </CharString>
          <CharString index="37">
            -65 -24 87 476 4 callgsubr
            91 231 116 vstem
            return
          </CharString>
          <CharString index="38">
            -98 12 -21 674 -20 hstem
            511 hmoveto
            4 103 -256 -31 72 593 -238 -15 47 -659 rlineto
            return
          </CharString>
          <CharString index="39">
            121 -15 rmoveto
            -80 callsubr
            return
          </CharString>
          <CharString index="40">
            44 -145 rlineto
            23 37 39 10 35 hhcurveto
            62 return
          </CharString>
          <CharString index="41">
            -43 12 -21 518 -20 hstem
            76 509 rmoveto
            3 -71 194 -20 -225 -366 -3 -61 431 9 -6 102 -310 -37 335 331 -13 104 rlineto
            return
          </CharString>
          <CharString index="42">
            84 -101 61 89 vvcurveto
            65 52 55 72 45 vhcurveto
            -183 122 rlineto
            -87 -69 -63 -81 -110 vvcurveto
            return
          </CharString>
          <CharString index="43">
            rmoveto
            -63 -31 -65 -93 -111 vvcurveto
            -25 3 -26 9 -36 vhcurveto
            -21 26 57 -16 85 hhcurveto
            5 -64 77 8 24 221 -116 -7 5 -90 rlineto
            -2 -17 -20 -1 -15 hhcurveto
            -17 -18 0 2 -16 hvcurveto
            2 80 81 88 92 45 rrcurveto
            endchar
          </CharString>
          <CharString index="44">
            -50 callsubr
            86 -147 -50 callsubr
            endchar
          </CharString>
          <CharString index="45">
            -76 callgsubr
            endchar
          </CharString>
          <CharString index="46">
            vvcurveto
            -58 callsubr
            39 hhcurveto
            78 62 33 97 12 hvcurveto
            return
          </CharString>
          <CharString index="47">
            hhcurveto
            53 57 6 17 54 -22 callgsubr
            return
          </CharString>
          <CharString index="48">
            246 -35 callsubr
            -206 -456 -87 callgsubr
            return
          </CharString>
          <CharString index="49">
            -55 -20 -33 -51 -17 -30 7 14 -20 vhcurveto
            -36 callsubr
            return
          </CharString>
          <CharString index="50">
            rmoveto
            25 16 25 10 19 5 rrcurveto
            5 -14 3 -33 -26 vvcurveto
            -29 -5 -52 callgsubr
            return
          </CharString>
          <CharString index="51">
            rmoveto
            28 30 34 65 94 vvcurveto
            50 -8 57 -27 65 vhcurveto
            23 -31 -42 17 -44 hhcurveto
            return
          </CharString>
          <CharString index="52">
            -11 callgsubr
            -17 -28 -62 -32 vhcurveto
            44 -59 rlineto
            109 41 71 60 92 vvcurveto
            return
          </CharString>
          <CharString index="53">
            7 -21 679 -20 hstem
            return
          </CharString>
          <CharString index="54">
            -83 callsubr
            29 -294 -29 callgsubr
          </CharString>
          <CharString index="55">
            rmoveto
            9 48 20 34 42 35 -75 60 rcurveline
            -64 -58 -24 -93 -87 vvcurveto
            -30 2 -28 5 -26 vhcurveto
            -18 18 34 -14 39 hhcurveto
            69 19 32 61 57 -21 36 -34 -16 -10 -4 -7 -9 hvcurveto
            return
          </CharString>
          <CharString index="56">
            13 10 -1 -2 12 hvcurveto
            3 -15 1 -16 -16 vvcurveto
            -87 -31 -102 -59 -67 vhcurveto
            return
          </CharString>
          <CharString index="57">
            rmoveto
            36 -51 175 95 -77 103 rlineto
            return
          </CharString>
          <CharString index="58">
            -249 -56 callgsubr
            return
          </CharString>
          <CharString index="59">
            -41 callsubr
            -28 -50 62 -32 31 -33 -33 callsubr
            endchar
          </CharString>
          <CharString index="60">
            -19 callsubr
            519 return
          </CharString>
          <CharString index="61">
            99 9 40 330 85 61 52 19 rlinecurve
            return
          </CharString>
          <CharString index="62">
            -23 -2 -21 238 48 102 147 return
          </CharString>
          <CharString index="63">
            -56 -4 -53 -7 -56 -6 rrcurveto
            7 vlineto
            92 64 70 101 91 vvcurveto
            16 -2 15 -6 15 vhcurveto
            23 -37 -45 9 -44 hhcurveto
            -69 -38 -17 -23 -40 hvcurveto
            endchar
          </CharString>
          <CharString index="64">
            651 -49 callgsubr
            return
          </CharString>
          <CharString index="65">
            -33 callgsubr
            -44 callsubr
          </CharString>
          <CharString index="66">
            -27 callgsubr
            70 -80 47 -62 35 hvcurveto
            return
          </CharString>
          <CharString index="67">
            -24 87 93 57 326 -20 hstem
            return
          </CharString>
          <CharString index="68">
            -214 -33 return
          </CharString>
          <CharString index="69">
            -52 -54 callsubr
            25 -43 callsubr
            return
          </CharString>
          <CharString index="70">
            rmoveto
            -34 callgsubr
            return
          </CharString>
          <CharString index="71">
            -30 -51 rlineto
            -32 40 41 -13 return
          </CharString>
          <CharString index="72">
            -68 rmoveto
            50 -13 266 799 -92 21 rlineto
            return
          </CharString>
          <CharString index="73">
            100 700 rmoveto
            -461 150 -131 185 185 150 176 218 153 -76 130 -234 -90 -114 -19 -47 -142 vhcurveto
            346 26 rmoveto
            204 66 -112 -131 -196 -132 -158 -163 return
          </CharString>
          <CharString index="74">
            16 -33 rlinecurve
            -40 callgsubr
            return
          </CharString>
          <CharString index="75">
            -37 callgsubr
            -23 callsubr
            return
          </CharString>
          <CharString index="76">
            rmoveto
            -211 -107 37 -75 18 14 31 21 19 14 rlinecurve
            17 -281 77 7 return
          </CharString>
          <CharString index="77">
            rmoveto
            -75 90 -76 -62 return
          </CharString>
          <CharString index="78">
            rmoveto
            99 9 return
          </CharString>
          <CharString index="79">
            78 -54 callsubr
            625 597 rmoveto
            -89 68 -232 -302 32 302 -238 -15 57 -664 33 callsubr
            27 252 22 23 135 -285 212 15 -247 375 rlineto
            return
          </CharString>
          <CharString index="80">
            -5 6 -21 731 -20 hstem
            526 484 rmoveto
            -67 52 -213 -252 38 432 -39 callsubr
            51 -698 99 9 17 191 36 34 125 -234 190 13 -217 324 rlineto
            return
          </CharString>
          <CharString index="81">
            -21 -23 6 8 -25 vhcurveto
            -18 -54 rlineto
            -21 41 44 -13 42 hhcurveto
            84 return
          </CharString>
          <CharString index="82">
            155 -14 rmoveto
            return
          </CharString>
          <CharString index="83">
            9 159 83 144 41 callsubr
            386 -7 callsubr
            10 -117 rmoveto
            -10 -83 rlineto
            422 hlineto
            10 110 rlineto
            return
          </CharString>
          <CharString index="84">
            37 -74 26 18 33 25 27 19 rlinecurve
            21 -12 8 -21 -25 vvcurveto
            -29 -16 -41 -34 -37 vhcurveto
            return
          </CharString>
          <CharString index="85">
            -1 callgsubr
            -78 3 -88 19 -84 54 -48 -90 rcurveline
            -44 81 90 -18 75 hhcurveto
            171 70 15 callgsubr
            return
          </CharString>
          <CharString index="86">
            -20 hstem
            -25 callsubr
            return
          </CharString>
          <CharString index="87">
            -74 -73 -17 -18 -44 return
          </CharString>
          <CharString index="88">
            99 9 64 return
          </CharString>
          <CharString index="89">
            -81 22 -144 -359 rlineto
            -9 hlineto
            return
          </CharString>
          <CharString index="90">
            -148 149 -71 -95 vvcurveto
            -36 -19 return
          </CharString>
          <CharString index="91">
            -32 callgsubr
            590 -369 -56 callsubr
            return
          </CharString>
          <CharString index="92">
            rmoveto
            36 285 82 26 48 19 rrcurveto
            -1 callsubr
            -9 -17 -22 -5 -24 hhcurveto
            -37 -41 12 24 -30 hvcurveto
            endchar
          </CharString>
          <CharString index="93">
            23 callsubr
            101 vstem
            return
          </CharString>
          <CharString index="94">
            -68 callsubr
            4 177 -60 callgsubr
            return
          </CharString>
          <CharString index="95">
            82 13 30 40 25 vhcurveto
            152 -103 52 108 rlineto
            35 -62 -59 25 -116 hhcurveto
            -75 -74 -13 -35 -56 hvcurveto
            -9 -26 -4 -27 -27 vvcurveto
            return
          </CharString>
          <CharString index="96">
            229 21 callgsubr
            -225 -27 return
          </CharString>
          <CharString index="97">
            -78 94 vhcurveto
            4 -12 return
          </CharString>
          <CharString index="98">
            rmoveto
            -45 -45 0 -11 -45 hvcurveto
            -17 -33 -8 -45 -37 vvcurveto
            -4 15 17 -1 17 hhcurveto
            35 39 6 9 26 hvcurveto
            8 33 3 32 51 vvcurveto
            return
          </CharString>
          <CharString index="99">
            rmoveto
            -25 51 -351 -169 37 -75 rlineto
            endchar
          </CharString>
          <CharString index="100">
            -10 callgsubr
            20 callsubr
            return
          </CharString>
          <CharString index="101">
            50 78 153 125 -33 127 -48 58 hvcurveto
            4 -12 return
          </CharString>
          <CharString index="102">
            6 -21 680 -20 hstem
            return
          </CharString>
          <CharString index="103">
            -16 callgsubr
            hstem
            58 238 vstem
            -68 callsubr
            return
          </CharString>
          <CharString index="104">
            vstem
            70 271 rmoveto
            20 callgsubr
            -130 177 105 178 -91 45 rlineto
            return
          </CharString>
          <CharString index="105">
            -14 56 224 56 26 56 224 56 hstemhm
            30 26 callsubr
            142 26 callsubr
            return
          </CharString>
          <CharString index="106">
            10 -29 10 -92 -67 vvcurveto
            -81 -8 -47 -7 -36 vhcurveto
            return
          </CharString>
          <CharString index="107">
            vhcurveto
            -37 45 92 -28 106 return
          </CharString>
          <CharString index="108">
            rmoveto
            10 53 rlineto
            return
          </CharString>
          <CharString index="109">
            rmoveto
            24 -61 383 189 rlineto
            87 vlineto
            -363 202 -58 -95 297 -138 rlineto
            return
          </CharString>
          <CharString index="110">
            rmoveto
            -24 61 -383 -189 rlineto
            -87 vlineto
            363 -202 58 95 -297 138 rlineto
            return
          </CharString>
          <CharString index="111">
            480 -21 279 -20 hstem
            78 459 11 callsubr
            return
          </CharString>
          <CharString index="112">
            8 callgsubr
            -34 return
          </CharString>
          <CharString index="113">
            -22 callgsubr
            -24 return
          </CharString>
          <CharString index="114">
            11 -53 vhcurveto
            return
          </CharString>
          <CharString index="115">
            148 -30 callsubr
            -77 callgsubr
          </CharString>
          <CharString index="116">
            167 -30 callsubr
            -77 callgsubr
          </CharString>
          <CharString index="117">
            798 -30 callsubr
            -77 callgsubr
          </CharString>
          <CharString index="118">
            rmoveto
            76 3 28 276 -142 -12 rlineto
            return
          </CharString>
          <CharString index="119">
            -21 671 -20 hstem
            return
          </CharString>
          <CharString index="120">
            539 rmoveto
            return
          </CharString>
          <CharString index="121">
            -54 callgsubr
            endchar
          </CharString>
          <CharString index="122">
            -52 hvcurveto
            -9 hlineto
            return
          </CharString>
          <CharString index="123">
            -10 callgsubr
            hintmask 10100000
            38 callgsubr
          </CharString>
          <CharString index="124">
            rrcurveto
            19 callgsubr
          </CharString>
          <CharString index="125">
            rmoveto
            10 72 rlineto
            22 -31 -38 12 -39 -85 -57 -57 -84 hhcurveto
            return
          </CharString>
          <CharString index="126">
            -7 75 -186 175 -85 -45 return
          </CharString>
          <CharString index="127">
            -10 -110 rlineto
            return
          </CharString>
          <CharString index="128">
            528 -20 return
          </CharString>
          <CharString index="129">
            rmoveto
            70 -23 266 799 -112 31 rlineto
            endchar
          </CharString>
          <CharString index="130">
            -20 hstem
            70 return
          </CharString>
          <CharString index="131">
            459 186 -186 354 hstemhm
            70 186 return
          </CharString>
          <CharString index="132">
            447 354 -186 186 hstemhm
            70 186 return
          </CharString>
          <CharString index="133">
            82 131 83 return
          </CharString>
          <CharString index="134">
            rlineto
            -171 return
          </CharString>
          <CharString index="135">
            168 hstem
            38 152 58 152 vstem
            38 return
          </CharString>
          <CharString index="136">
            hlineto
            70 209 -112 31 -67 -240 rlineto
            return
          </CharString>
          <CharString index="137">
            6 -21 538 -20 return
          </CharString>
          <CharString index="138">
            -161 -131 120 417 -3 hvcurveto
            return
          </CharString>
          <CharString index="139">
            hstemhm
            50 186 return
          </CharString>
          <CharString index="140">
            110 10 return
          </CharString>
          <CharString index="141">
            145 hstem
            67 177 vstem
            244 return
          </CharString>
          <CharString index="142">
            52 hstemhm
            204 121 -85 112 return
          </CharString>
          <CharString index="143">
            -143 -208 91 132 -21 hstem
            return
          </CharString>
          <CharString index="144">
            hhcurveto
            17 17 -2 -4 17 hvcurveto
            endchar
          </CharString>
          <CharString index="145">
            hvcurveto
            hintmask 11010000
            return
          </CharString>
          <CharString index="146">
            -20 callgsubr
            -441 -14 return
          </CharString>
          <CharString index="147">
            -177 -90 80 667 61 hstemhm
            return
          </CharString>
          <CharString index="148">
            83 hstem
            90 432 vstem
            512 return
          </CharString>
          <CharString index="149">
            92 hstem
            77 268 vstem
            338 return
          </CharString>
          <CharString index="150">
            112 -86 112 return
          </CharString>
          <CharString index="151">
            -21 21 callsubr
            return
          </CharString>
        <CharString name=".notdef">
          -303 endchar
        </CharString>
        <CharString name="A">
          -100 callsubr
          endchar
        </CharString>
        <CharString name="AE">
          -61 callgsubr
          endchar
        </CharString>
        <CharString name="AEacute">
          -61 callgsubr
          176 575 -91 callgsubr
        </CharString>
        <CharString name="Aacute">
          -100 callsubr
          28 575 -91 callgsubr
        </CharString>
        <CharString name="Abreve">
          -100 callsubr
          223 682 -93 callgsubr
        </CharString>
        <CharString name="Acircumflex">
          -100 callsubr
          -14 558 -96 callgsubr
        </CharString>
        <CharString name="Adieresis">
          -100 callsubr
          -44 601 -102 callsubr
        </CharString>
        <CharString name="Agrave">
          -100 callsubr
          78 697 -77 callsubr
        </CharString>
        <CharString name="Amacron">
          -100 callsubr
          284 555 -72 callsubr
        </CharString>
        <CharString name="Aogonek">
          -100 callsubr
          463 -291 -93 callsubr
        </CharString>
        <CharString name="Aring">
          -100 callsubr
          255 595 -99 callsubr
        </CharString>
        <CharString name="Aringacute">
          36 6 -21 517 50 -13 -20 142 50 -46 -20 153 -20 hstemhm
          260 57 91 61 hintmask 10101000
          30 hmoveto
          -45 callgsubr
          69 -166 90 15 -130 -13 callgsubr
          rlineto
          44 -126 rmoveto
          8 hlineto
          139 -335 -4 callgsubr
          hintmask 01010111
          294 595 -89 callsubr
        </CharString>
        <CharString name="Atilde">
          -100 callsubr
          201 641 -95 callgsubr
        </CharString>
        <CharString name="B">
          99 -26 71 630 -21 callsubr
          -8 57 70 -4 47 hhcurveto
          220 81 83 96 61 -43 82 -79 61 hvcurveto
          55 41 35 56 75 vvcurveto
          29 -5 33 -12 36 vhcurveto
          35 -56 -73 13 -71 hhcurveto
          -99 -122 -26 -19 -62 hvcurveto
          337 -315 rmoveto
          24 -37 9 -41 -41 vvcurveto
          -59 -19 -54 -16 -32 vhcurveto
          -5 -13 -45 -1 -16 hhcurveto
          -31 -33 6 9 -33 hvcurveto
          22 207 53 12 52 15 46 21 rlinecurve
          -52 295 rmoveto
          35 -24 18 -52 -40 vvcurveto
          -61 -53 -72 -93 -37 vhcurveto
          29 274 rlineto
          7 24 23 5 17 hhcurveto
          endchar
        </CharString>
        <CharString name="C">
          -97 callgsubr
          endchar
        </CharString>
        <CharString name="Cacute">
          -97 callgsubr
          -283 203 -91 callgsubr
        </CharString>
        <CharString name="Ccaron">
          -97 callgsubr
          -5 220 -30 callsubr
          -77 callgsubr
        </CharString>
        <CharString name="Ccedilla">
          -97 callgsubr
          -350 -765 -48 callsubr
        </CharString>
        <CharString name="Ccircumflex">
          -97 callgsubr
          -326 186 -96 callgsubr
        </CharString>
        <CharString name="Cdotaccent">
          -97 callgsubr
          -95 305 -94 callgsubr
        </CharString>
        <CharString name="D">
          -83 callsubr
          endchar
        </CharString>
        <CharString name="Dcaron">
          -83 callsubr
          150 9 callgsubr
        </CharString>
        <CharString name="Dcroat">
          -53 callsubr
        </CharString>
        <CharString name="Delta">
          -18 callgsubr
        </CharString>
        <CharString name="E">
          -99 callgsubr
          endchar
        </CharString>
        <CharString name="Eacute">
          -99 callgsubr
          53 790 -91 callgsubr
        </CharString>
        <CharString name="Ebreve">
          -99 callgsubr
          228 897 -93 callgsubr
        </CharString>
        <CharString name="Ecaron">
          -99 callgsubr
          330 10 callgsubr
        </CharString>
        <CharString name="Ecircumflex">
          -99 callgsubr
          11 773 -96 callgsubr
        </CharString>
        <CharString name="Edieresis">
          -99 callgsubr
          -19 816 -102 callsubr
        </CharString>
        <CharString name="Edotaccent">
          -99 callgsubr
          251 892 -94 callgsubr
        </CharString>
        <CharString name="Egrave">
          -99 callgsubr
          103 912 -77 callsubr
        </CharString>
        <CharString name="Emacron">
          -99 callgsubr
          289 770 -72 callsubr
        </CharString>
        <CharString name="Eng">
          89 -208 74 150 -21 26 -21 519 146 33 callgsubr
          93 85 hintmask 10101100
          642 -30 callgsubr
          -11 -492 rlineto
          -6 hlineto
          -176 502 -242 -15 rlineto
          hintmask 11001100
          -27 -655 rlineto
          hintmask 10110100
          100 5 -3 519 rlineto
          8 hlineto
          223 -368 rlineto
          46 -77 26 -68 -51 vvcurveto
          -55 -31 -34 -66 -26 callsubr
          81 50 151 10 hvcurveto
          endchar
        </CharString>
        <CharString name="Eogonek">
          -99 callgsubr
          447 -76 -93 callsubr
        </CharString>
        <CharString name="Eth">
          -53 callsubr
        </CharString>
        <CharString name="Euro">
          -101 -24 97 98 77 -59 60 72 78 -59 58 302 -20 hstemhm
          71 100 hintmask 10101110
          372 196 1 callsubr
          -181 hlineto
          10 29 13 29 16 28 152 11 rcurveline
          10 53 rlineto
          -119 hlineto
          53 68 72 62 93 49 -193 122 rcurveline
          hintmask 11010110
          -71 -47 -90 -110 -47 -144 rrcurveto
          -70 22 callgsubr
          61 4 -5 -24 -3 -25 -2 -25 rlinecurve
          -61 22 callgsubr
          71 5 rlineto
          -149 6 53 -49 200 -72 callgsubr
          hintmask 10101110
          33 3 35 7 34 vhcurveto
          endchar
        </CharString>
        <CharString name="F">
          -29 12 -21 264 81 328 -20 hstem
          482 247 rmoveto
          -5 90 -186 -2 29 237 39 callsubr
          47 -659 110 5 32 267 rlineto
          endchar
        </CharString>
        <CharString name="G">
          -97 callsubr
          endchar
        </CharString>
        <CharString name="Gbreve">
          -97 callsubr
          -31 899 -93 callgsubr
        </CharString>
        <CharString name="Gcircumflex">
          -97 callsubr
          -235 775 -96 callgsubr
        </CharString>
        <CharString name="Gdotaccent">
          -97 callsubr
          5 894 -94 callgsubr
        </CharString>
        <CharString name="H">
          -55 callgsubr
          endchar
        </CharString>
        <CharString name="Hbar">
          -55 callgsubr
          238 201 rmoveto
          19 53 rlineto
          -707 hlineto
          -19 -80 rlineto
          endchar
        </CharString>
        <CharString name="Hcircumflex">
          -55 callgsubr
          -257 518 -96 callgsubr
        </CharString>
        <CharString name="I">
          -81 callsubr
          endchar
        </CharString>
        <CharString name="IJ">
          249 -24 74 -43 -21 679 -20 hstemhm
          hintmask 01100000
          -70 callgsubr
          hintmask 10100000
          679 15 -46 callgsubr
          endchar
        </CharString>
        <CharString name="Iacute">
          -81 callsubr
          9 131 -91 callgsubr
        </CharString>
        <CharString name="Ibreve">
          -81 callsubr
          193 238 -93 callgsubr
        </CharString>
        <CharString name="Icircumflex">
          -81 callsubr
          -34 114 -96 callgsubr
        </CharString>
        <CharString name="Idieresis">
          -81 callsubr
          -63 157 -102 callsubr
        </CharString>
        <CharString name="Idotaccent">
          -81 callsubr
          206 233 -94 callgsubr
        </CharString>
        <CharString name="Igrave">
          -81 callsubr
          59 253 -77 callsubr
        </CharString>
        <CharString name="Imacron">
          -81 callsubr
          254 111 -72 callsubr
        </CharString>
        <CharString name="Iogonek">
          -81 callsubr
          223 -739 -93 callsubr
        </CharString>
        <CharString name="Itilde">
          -81 callsubr
          171 197 -95 callgsubr
        </CharString>
        <CharString name="J">
          -31 callgsubr
          endchar
        </CharString>
        <CharString name="Jcircumflex">
          -31 callgsubr
          -231 623 -96 callgsubr
        </CharString>
        <CharString name="K">
          -28 callsubr
          endchar
        </CharString>
        <CharString name="L">
          -69 callsubr
          endchar
        </CharString>
        <CharString name="Lacute">
          -69 callsubr
          -41 790 -91 callgsubr
        </CharString>
        <CharString name="Lcaron">
          -69 callsubr
          243 10 callgsubr
        </CharString>
        <CharString name="Ldot">
          -69 callsubr
          221 337 rmoveto
          -62 callsubr
        </CharString>
        <CharString name="Lslash">
          -69 callsubr
          254 483 -8 callsubr
        </CharString>
        <CharString name="M">
          336 6 -21 532 -20 168 -20 hstem
          103 85 vstem
          769 -15 rmoveto
          90 15 -30 -13 callgsubr
          -117 -481 -101 476 -242 -10 -47 -655 100 5 16 478 rlineto
          6 hlineto
          217 -493 90 15 109 517 rlineto
          8 hlineto
          endchar
        </CharString>
        <CharString name="N">
          -84 callsubr
          endchar
        </CharString>
        <CharString name="Nacute">
          -84 callsubr
          -332 781 -91 callgsubr
        </CharString>
        <CharString name="Ncaron">
          -84 callsubr
          -62 10 callsubr
        </CharString>
        <CharString name="Ntilde">
          -84 callsubr
          -170 847 -95 callgsubr
        </CharString>
        <CharString name="O">
          -105 callsubr
          endchar
        </CharString>
        <CharString name="OE">
          245 -24 96 -80 79 -50 -21 285 80 299 -20 46 -20 hstemhm
          60 101 hintmask 10010110
          hintmask 00110110
          774 hmoveto
          hintmask 01011010
          -86 callgsubr
          -439 -14 rlineto
          hintmask 10010110
          -22 16 -24 14 -24 10 rrcurveto
          -85 callsubr
          51 41 6 10 32 hvcurveto
          -263 88 rmoveto
          142 68 157 118 23 callgsubr
          29 -408 rlineto
          -10 -40 -48 -7 -46 hhcurveto
          -29 -28 3 5 -24 hvcurveto
          endchar
        </CharString>
        <CharString name="Oacute">
          -105 callsubr
          -233 529 -91 callgsubr
        </CharString>
        <CharString name="Obreve">
          -105 callsubr
          -58 636 -93 callgsubr
        </CharString>
        <CharString name="Ocircumflex">
          -105 callsubr
          -275 512 -96 callgsubr
        </CharString>
        <CharString name="Odieresis">
          -105 callsubr
          -305 555 -102 callsubr
        </CharString>
        <CharString name="Ograve">
          -105 callsubr
          -183 651 -77 callsubr
        </CharString>
        <CharString name="Ohungarumlaut">
          -105 callsubr
          -309 507 -63 callsubr
        </CharString>
        <CharString name="Omacron">
          -105 callsubr
          3 509 -72 callsubr
        </CharString>
        <CharString name="Omega">
          -63 callgsubr
        </CharString>
        <CharString name="Oslash">
          18 callgsubr
          471 719 rmoveto
          -66 15 -229 -845 -53 callgsubr
          endchar
        </CharString>
        <CharString name="Oslashacute">
          18 callgsubr
          466 700 rmoveto
          -66 15 -224 -826 -53 callgsubr
          -233 529 -91 callgsubr
        </CharString>
        <CharString name="Otilde">
          -105 callsubr
          -70 595 -95 callgsubr
        </CharString>
        <CharString name="P">
          26 7 -21 689 -21 callsubr
          100 10 24 224 rlineto
          185 42 155 99 163 vvcurveto
          33 -26 callgsubr
          -120 44 callgsubr
          265 -20 rmoveto
          42 -25 21 -43 -47 vvcurveto
          -73 -50 -85 -90 -49 vhcurveto
          33 315 rlineto
          4 15 15 3 14 hhcurveto
          endchar
        </CharString>
        <CharString name="Q">
          -14 -144 -21 141 -67 callgsubr
          268 690 rmoveto
          -19 callgsubr
          -180 -76 callsubr
          44 -37 71 -27 103 -1 57 -141 rcurveline
          180 13 -112 143 rlineto
          95 28 24 73 115 vvcurveto
          -50 callgsubr
          vhcurveto
          -100 callgsubr
          endchar
        </CharString>
        <CharString name="R">
          -89 callgsubr
          endchar
        </CharString>
        <CharString name="Racute">
          -89 callgsubr
          -119 171 -91 callgsubr
        </CharString>
        <CharString name="Rcaron">
          -89 callgsubr
          151 9 callgsubr
        </CharString>
        <CharString name="S">
          -79 callgsubr
          endchar
        </CharString>
        <CharString name="Sacute">
          -79 callgsubr
          68 341 -91 callgsubr
        </CharString>
        <CharString name="Scaron">
          -54 -21 745 -20 hstem
          49 410 -82 callgsubr
          338 388 -30 callsubr
          -77 callgsubr
        </CharString>
        <CharString name="Scedilla">
          -208 91 138 -21 700 -20 hstemhm
          49 209 -60 161 hintmask 11101000
          59 -187 -27 callgsubr
          44 -32 36 -39 28 hvcurveto
          69 44 42 58 77 vvcurveto
          hintmask 11110000
          -65 callsubr
          hintmask 11101000
          -17 callsubr
          -37 -68 -38 vhcurveto
          65 -32 63 -40 19 -47 17 callsubr
        </CharString>
        <CharString name="Scircumflex">
          -79 callgsubr
          35 324 -96 callgsubr
        </CharString>
        <CharString name="T">
          -37 -54 callsubr
          40 -43 callsubr
          endchar
        </CharString>
        <CharString name="Tbar">
          -38 callsubr
          -64 -349 rmoveto
          12 53 rlineto
          -446 hlineto
          -12 -80 rlineto
          endchar
        </CharString>
        <CharString name="Tcaron">
          -38 callsubr
          -109 133 -30 callsubr
          -77 callgsubr
        </CharString>
        <CharString name="Thorn">
          26 7 -21 31 -21 494 72 103 -20 hstemhm
          426 193 hintmask 01111000
          hintmask 10111000
          -25 callsubr
          hintmask 01111000
          100 10 10 101 rlineto
          191 40 163 100 167 vvcurveto
          33 -6 34 -12 36 vhcurveto
          36 -63 -56 19 -69 hhcurveto
          -30 -33 -4 -7 -36 hvcurveto
          12 114 -228 -35 rlineto
          265 -140 rmoveto
          43 -26 20 -42 -47 vvcurveto
          -77 -55 -89 -99 -47 vhcurveto
          34 317 rlineto
          7 20 19 4 18 hhcurveto
          endchar
        </CharString>
        <CharString name="U">
          -103 callsubr
          endchar
        </CharString>
        <CharString name="Uacute">
          -103 callsubr
          -305 591 -91 callgsubr
        </CharString>
        <CharString name="Ubreve">
          -103 callsubr
          -131 698 -93 callgsubr
        </CharString>
        <CharString name="Ucircumflex">
          -103 callsubr
          -355 574 -96 callgsubr
        </CharString>
        <CharString name="Udieresis">
          -103 callsubr
          -379 617 -102 callsubr
        </CharString>
        <CharString name="Ugrave">
          -103 callsubr
          -261 713 -77 callsubr
        </CharString>
        <CharString name="Uhungarumlaut">
          -103 callsubr
          -399 569 -63 callsubr
        </CharString>
        <CharString name="Umacron">
          -103 callsubr
          -69 571 -72 callsubr
        </CharString>
        <CharString name="Uogonek">
          -103 callsubr
          -71 -281 -93 callsubr
        </CharString>
        <CharString name="Uring">
          -103 callsubr
          -80 611 -99 callsubr
        </CharString>
        <CharString name="Utilde">
          -103 callsubr
          -155 657 -95 callgsubr
        </CharString>
        <CharString name="V">
          -4 -5 callsubr
          244 21 callgsubr
          -229 -27 247 -653 90 15 217 641 -90 24 -145 -502 rlineto
          -9 hlineto
          endchar
        </CharString>
        <CharString name="W">
          -87 callsubr
          endchar
        </CharString>
        <CharString name="Wacute">
          -87 callsubr
          72 620 -91 callgsubr
        </CharString>
        <CharString name="Wcircumflex">
          -87 callsubr
          40 603 -96 callgsubr
        </CharString>
        <CharString name="Wdieresis">
          -87 callsubr
          8 646 -102 callsubr
        </CharString>
        <CharString name="Wgrave">
          -87 callsubr
          100 742 -77 callsubr
        </CharString>
        <CharString name="X">
          28 -5 callsubr
          30 13 rmoveto
          115 -28 117 254 108 -253 231 29 -197 314 194 309 -115 27 -114 -247 -88 247 -231 -28 174 -314 rlineto
          endchar
        </CharString>
        <CharString name="Y">
          -78 callgsubr
          endchar
        </CharString>
        <CharString name="Yacute">
          -78 callgsubr
          -119 478 -91 callgsubr
        </CharString>
        <CharString name="Ycircumflex">
          -78 callgsubr
          -142 461 -96 callgsubr
        </CharString>
        <CharString name="Ydieresis">
          -78 callgsubr
          -176 504 -102 callsubr
        </CharString>
        <CharString name="Ygrave">
          -78 callgsubr
          -60 600 -77 callsubr
        </CharString>
        <CharString name="Z">
          -66 callgsubr
          endchar
        </CharString>
        <CharString name="Zacute">
          -66 callgsubr
          -345 131 -91 callgsubr
        </CharString>
        <CharString name="Zcaron">
          -66 callgsubr
          -52 8 callsubr
        </CharString>
        <CharString name="Zdotaccent">
          -66 callgsubr
          -120 233 -94 callgsubr
        </CharString>
        <CharString name="a">
          -106 callgsubr
          endchar
        </CharString>
        <CharString name="aacute">
          -106 callgsubr
          -195 417 -91 callgsubr
        </CharString>
        <CharString name="abreve">
          -106 callgsubr
          9 524 -93 callgsubr
        </CharString>
        <CharString name="acircumflex">
          -106 callgsubr
          -221 400 -96 callgsubr
        </CharString>
        <CharString name="acute">
          -165 563 190 hstem
          130 238 vstem
          130 631 -91 callgsubr
        </CharString>
        <CharString name="acute.case">
          -165 713 190 hstem
          140 238 vstem
          140 781 -91 callgsubr
        </CharString>
        <CharString name="adieresis">
          -106 callgsubr
          -257 443 -102 callsubr
        </CharString>
        <CharString name="ae">
          -38 callgsubr
          24 -179 rmoveto
          -41 54 -88 callsubr
          hintmask 11001111
          -92 callsubr
          hintmask 10110111
          -33 -18 -33 -30 -30 -40 rrcurveto
          42 -42 -66 19 -82 hhcurveto
          -20 callsubr
          hvcurveto
          -67 callsubr
          53 -32 -55 5 hvcurveto
          -92 callgsubr
          112 86 67 103 42 hvcurveto
          hintmask 10101111
          -28 callgsubr
          endchar
        </CharString>
        <CharString name="aeacute">
          -38 callgsubr
          hintmask 11001111
          24 -179 rmoveto
          -41 54 81 -18 104 -60 callsubr
          hintmask 10110111
          -69 callgsubr
          -92 callsubr
          -33 -18 -33 -30 -30 -40 rrcurveto
          42 -42 -66 19 -82 hhcurveto
          -20 callsubr
          hvcurveto
          -67 callsubr
          53 -32 -55 5 hvcurveto
          hintmask 10101111
          -92 callgsubr
          112 86 67 103 42 hvcurveto
          -28 callgsubr
          -336 251 -91 callgsubr
        </CharString>
        <CharString name="agrave">
          -106 callgsubr
          -135 539 -77 callsubr
        </CharString>
        <CharString name="amacron">
          -106 callgsubr
          71 397 -72 callsubr
        </CharString>
        <CharString name="ampersand">
          12 -197 -21 204 83 212 65 354 -14 callsubr
          385 -218 rmoveto
          66 9 39 219 1 0 45 265 rlinecurve
          106 12 3 67 -403 -16 52 93 79 84 98 63 rlinecurve
          -71 callgsubr
          11 12 1 11 hhcurveto
          -85 82 rmoveto
          -36 -37 4 7 -35 hvcurveto
          52 9 52 17 52 vhcurveto
          139 16 19 -177 rlineto
          -4 -24 -25 -2 -27 hhcurveto
          endchar
        </CharString>
        <CharString name="aogonek">
          -106 callgsubr
          180 -305 -93 callsubr
        </CharString>
        <CharString name="apple">
          320 -93 -21 129 -21 366 57 191 -20 hstem
          124 76 92 74 191 75 92 76 vstem
          556 -89 rmoveto
          1 3 4 0 3 8 7 -1 8 hhcurveto
          26 2 19 10 17 hvcurveto
          15 8 21 1 13 9 13 9 5 22 12 12 10 10 16 1 9 11 11 13 -1 24 8 14 rrcurveto
          10 17 24 1 28 10 -2 11 11 vvcurveto
          25 22 3 3 20 vhcurveto
          14 -11 15 15 13 11 12 14 22 -24 14 25 8 1 8 9 vvcurveto
          28 -25 3 -11 18 vhcurveto
          -6 10 5 22 -6 10 -11 19 -26 4 -14 13 -12 12 2 18 -13 9 -14 10 -16 -3 -15 8 rrcurveto
          10 -19 -2 26 -27 -10 -10 -3 -8 -24 -7 25 -26 -14 -17 -12 -14 -13 -18 12 -13 -22 -8 -23 -25 -9 -9 2 -8 hhcurveto
          -25 -1 -7 -28 -17 -9 -16 -8 -22 2 -13 -11 -11 -10 -4 -21 -10 -10 -11 -11 -21 0 -8 -13 -7 -11 3 -21 -7 -11 rrcurveto
          -10 -17 -25 -6 -25 -8 1 -9 -8 -19 -25 -21 -21 -15 12 -10 -17 -15 -12 -15 -14 -21 25 -15 -19 -8 -3 -8 -9 vvcurveto
          -26 26 -11 8 -12 vhcurveto
          11 -18 -7 -11 11 -18 10 -16 16 3 13 -11 13 -11 -1 -24 18 -11 16 -10 7 9 23 -12 rrcurveto
          -7 13 12 -29 26 7 9 2 8 24 11 -25 20 15 15 12 16 15 16 -10 15 hhcurveto
          17 13 18 5 18 hvcurveto
          -26 92 rmoveto
          -3 -13 -10 -13 -12 -11 -11 7 -11 -12 -12 -9 -12 hhcurveto
          2 -14 -7 16 -19 -5 -5 -1 -5 hhcurveto
          -19 -7 21 5 -11 hvcurveto
          -17 9 -5 -8 -11 8 -13 8 1 18 -10 8 -9 8 -12 -2 -7 11 -8 13 5 9 -8 13 rrcurveto
          -5 9 -20 7 19 5 2 6 5 15 -17 11 15 11 8 11 11 12 -8 7 11 16 17 14 16 5 -1 6 5 vvcurveto
          19 19 4 7 13 vhcurveto
          5 8 -2 15 5 8 7 9 14 0 8 8 8 8 2 15 9 7 9 8 16 -2 11 6 rrcurveto
          6 13 4 21 19 6 5 -1 6 19 7 17 16 10 12 -9 10 10 12 9 11 19 3 -18 19 6 7 2 7 hhcurveto
          20 1 -19 -7 13 hvcurveto
          12 -7 11 4 10 -8 10 -7 -2 -13 9 -8 10 -10 19 -3 8 -13 4 -8 -3 -15 4 -8 rrcurveto
          8 -14 18 -1 -21 -6 -1 -6 -5 -18 18 -11 -16 -9 -8 -10 -9 -11 8 -11 -10 vvcurveto
          -3 -14 -15 -3 -19 -6 1 -7 -7 vvcurveto
          -24 -16 3 -8 -14 vhcurveto
          -6 -11 0 -17 -7 -10 -7 -8 -12 0 -7 -8 -8 -8 -4 -15 -10 -7 -9 -7 -16 -1 -10 -6 rrcurveto
          -5 -12 -1 -16 -20 -5 -5 1 -5 hhcurveto
          -3 -3 0 -1 -3 hvcurveto
          -68 414 rmoveto
          -94 -76 -76 -94 -94 76 -76 94 94 76 76 94 94 -76 76 -94 hvcurveto
          43 -125 rmoveto
          -175 -85 175 -54 68 191 -68 vlineto
          endchar
        </CharString>
        <CharString name="approxequal">
          9 124 85 -21 112 27 42 callgsubr
          hintmask 10011000
          512 392 18 callsubr
          hintmask 10101000
          5 callgsubr
          hintmask 10011000
          30 29 -8 -15 25 hvcurveto
          -415 -157 rmoveto
          -7 -71 rlineto
          -28 27 36 -12 37 88 54 64 86 hhcurveto
          34 33 -11 -21 27 hvcurveto
          hintmask 01011000
          10 113 rlineto
          21 -29 -34 10 -35 -96 -54 -91 -97 hhcurveto
          -28 -28 8 18 -24 hvcurveto
          endchar
        </CharString>
        <CharString name="aring">
          -106 callgsubr
          61 437 -99 callsubr
        </CharString>
        <CharString name="aringacute">
          -45 callsubr
          -10 50 109 50 87 -20 hstemhm
          202 57 91 61 hintmask 11100000
          -107 callgsubr
          hintmask 00011111
          52 437 -89 callsubr
        </CharString>
        <CharString name="asciicircum">
          9 669 -20 hstem
          105 398 vstem
          442 362 rmoveto
          61 24 -149 283 rlineto
          -87 hlineto
          -162 -263 95 -58 98 197 rlineto
          endchar
        </CharString>
        <CharString name="asciitilde">
          9 227 42 callgsubr
          hintmask 01100000
          512 292 18 callsubr
          hintmask 10100000
          5 callgsubr
          hintmask 01100000
          30 29 -8 -15 25 hvcurveto
          endchar
        </CharString>
        <CharString name="asterisk">
          -32 21 callsubr
          32 -20 177 -20 hstemhm
          70 431 hintmask 01110000
          341 697 rmoveto
          -120 -10 26 -146 -121 96 rlineto
          hintmask 10110000
          -52 -109 139 -50 -143 -58 68 -99 112 95 -20 -153 120 10 -27 144 122 -94 52 109 rlineto
          hintmask 01110000
          -140 49 144 59 -68 99 -113 -96 rlineto
          endchar
        </CharString>
        <CharString name="at">
          396 -156 67 150 58 303 43 164 66 hstem
          69 91 118 128 140 128 165 91 vstem
          652 476 rmoveto
          -71 -50 rlineto
          21 -33 -50 18 -57 hhcurveto
          -123 -40 -54 -105 -119 43 -113 60 72 62 41 91 36 hvcurveto
          7 hlineto
          -90 11 54 -55 89 hhcurveto
          58 160 22 221 209 -115 182 -295 -324 -127 -217 -235 -209 114 -190 294 119 90 47 47 65 hvcurveto
          -41 62 rlineto
          -44 -55 -72 -45 -103 hhcurveto
          -241 -79 154 177 203 87 184 270 241 81 -146 -176 -132 -50 -56 -61 -50 -11 38 43 -2 hvcurveto
          8 0 8 1 8 vhcurveto
          16 229 rlineto
          -136 -54 rmoveto
          -205 -81 -49 -36 -8 vhcurveto
          -12 30 -11 98 54 vvcurveto
          39 3 31 2 21 vhcurveto
          6 14 18 6 20 hhcurveto
          27 33 -7 -16 23 hvcurveto
          endchar
        </CharString>
        <CharString name="atilde">
          -106 callgsubr
          -29 483 -95 callgsubr
        </CharString>
        <CharString name="b">
          62 -24 64 483 -20 213 -20 hstem
          117 28 rmoveto
          -39 78 79 -13 62 hhcurveto
          196 -6 callsubr
          -12 13 callgsubr
          -81 -75 -83 -125 15 callsubr
          36 401 -58 callgsubr
          323 -279 rmoveto
          -1 callsubr
          -10 -39 -33 -2 -45 hhcurveto
          -19 -20 1 2 -18 hvcurveto
          38 286 83 56 48 19 rrcurveto
          endchar
        </CharString>
        <CharString name="backslash">
          36 callgsubr
          192 739 rmoveto
          -112 -31 266 -799 70 23 rlineto
          endchar
        </CharString>
        <CharString name="bar">
          -247 -102 841 hstem
          123 109 vstem
          138 -102 rmoveto
          79 hlineto
          31 841 rlineto
          -140 hlineto
          endchar
        </CharString>
        <CharString name="barra">
          -221 289 80 hstem
          0 382 vstem
          372 316 -29 callgsubr
        </CharString>
        <CharString name="braceleft">
          40 callsubr
          109 151 -125 95 hintmask 11010000
          hintmask 11100000
          172 316 rmoveto
          46 14 22 31 3 32 17 187 rcurveline
          45 4 51 32 81 hhcurveto
          61 vlineto
          -178 -109 -14 -156 -10 0 -10 13 -177 38 callsubr
          -69 -28 5 -48 69 -12 16 -229 rlineto
          -83 6 15 -41 63 hhcurveto
          35 51 10 26 73 hvcurveto
          -9 55 rlineto
          -7 -40 -24 -4 -23 hhcurveto
          -62 -12 24 35 hvcurveto
          36 14 123 39 vvcurveto
          25 -15 22 -45 14 vhcurveto
          endchar
        </CharString>
        <CharString name="braceright">
          40 callsubr
          166 151 -121 95 hintmask 11010000
          256 308 rmoveto
          -45 -14 -15 -22 -25 -39 14 -123 -36 vvcurveto
          -35 -12 -24 -62 -23 -24 4 7 -40 vhcurveto
          -9 -55 rlineto
          -26 73 51 -10 35 hhcurveto
          63 15 41 83 6 hvcurveto
          16 229 rlineto
          hintmask 11100000
          69 12 5 48 -69 28 rlineto
          13 177 0 10 10 vvcurveto
          156 -109 14 -178 vhcurveto
          -61 vlineto
          81 51 -32 -45 4 38 callsubr
          17 -187 3 -32 22 -31 46 -14 rlinecurve
          endchar
        </CharString>
        <CharString name="bracketleft">
          -177 -105 823 hstem
          100 296 vstem
          386 -54 rmoveto
          -10 50 -165 20 52 604 rlineto
          133 98 hlineto
          -296 -44 52 -779 rlineto
          endchar
        </CharString>
        <CharString name="bracketright">
          -177 674 28 callgsubr
          296 vstem
          274 -105 rmoveto
          52 779 -296 44 rlineto
          -98 133 vlineto
          52 -604 -165 -20 -10 -50 rlineto
          endchar
        </CharString>
        <CharString name="breve">
          -124 556 101 26 -20 hstemhm
          110 299 hintmask 01100000
          hintmask 10100000
          325 738 -90 callgsubr
          hintmask 01100000
          -44 callgsubr
        </CharString>
        <CharString name="breve.case">
          -124 706 101 hstem
          110 299 vstem
          325 888 -93 callgsubr
        </CharString>
        <CharString name="brokenbar">
          -247 500 239 hstemhm
          112 131 -111 90 hintmask 10100000
          hintmask 11000000
          248 739 rmoveto
          -140 hlineto
          8 -239 rlineto
          123 hlineto
          hintmask 10100000
          -101 -602 rmoveto
          79 hlineto
          11 294 rlineto
          -101 hlineto
          endchar
        </CharString>
        <CharString name="bullet">
          -270 197 220 hstem
          50 233 vstem
          50 307 rmoveto
          -60 32 -50 85 85 31 50 60 60 -31 50 -85 -85 -32 -50 -60 vhcurveto
          endchar
        </CharString>
        <CharString name="c">
          -96 callsubr
          endchar
        </CharString>
        <CharString name="cacute">
          -96 callsubr
          -266 205 -91 callgsubr
        </CharString>
        <CharString name="caron">
          -140 676 -20 37 -20 hstemhm
          80 303 hintmask 01100000
          hintmask 10100000
          383 648 -30 callsubr
          rlineto
          hintmask 01100000
          -77 callgsubr
        </CharString>
        <CharString name="caron.case">
          -140 706 26 callgsubr
          383 10 callsubr
        </CharString>
        <CharString name="ccaron">
          -96 callsubr
          12 222 -30 callsubr
          -77 callgsubr
        </CharString>
        <CharString name="ccedilla">
          -96 callsubr
          -310 -613 -48 callsubr
        </CharString>
        <CharString name="ccircumflex">
          -96 callsubr
          -312 188 -96 callgsubr
        </CharString>
        <CharString name="cdotaccent">
          -96 callsubr
          -70 307 -94 callgsubr
        </CharString>
        <CharString name="cedilla">
          36 callsubr
          323 61 vstem
          124 -187 -48 callsubr
        </CharString>
        <CharString name="cent">
          -143 56 87 hstem
          50 90 57 85 vstem
          190 -112 rmoveto
          100 hlineto
          -15 168 rlineto
          58 -81 callgsubr
          -134 87 14 156 rlineto
          -100 hlineto
          12 -153 rlineto
          -78 -63 -74 -129 -155 vvcurveto
          -39 4 -42 7 callsubr
          28 -24 50 -20 61 -9 rrcurveto
          endchar
        </CharString>
        <CharString name="circumflex">
          -140 566 26 callgsubr
          80 614 -96 callgsubr
        </CharString>
        <CharString name="circumflex.case">
          -140 716 26 callgsubr
          80 764 -96 callgsubr
        </CharString>
        <CharString name="colon">
          -317 -10 176 158 176 32 callsubr
          -186 189 -186 186 hintmask 11010000
          hintmask 11001000
          53 412 rmoveto
          -76 callgsubr
          hintmask 11100000
          -3 -334 rmoveto
          -62 callsubr
        </CharString>
        <CharString name="comma">
          -41 callgsubr
        </CharString>
        <CharString name="commaaccent">
          -303 -331 280 -158 158 hstemhm
          70 158 hintmask 10100000
          hintmask 01100000
          150 -201 -103 callgsubr
        </CharString>
        <CharString name="copyright">
          247 108 40 108 64 365 -20 28 -20 72 40 hstemhm
          100 40 159 67 364 40 hintmask 11011111
          -34 callsubr
          hvcurveto
          hintmask 11101111
          31 callsubr
          hintmask 11011111
          42 131 106 18 83 hhcurveto
          -33 -52 rmoveto
          -61 -41 -67 -114 -142 vvcurveto
          -32 3 -33 7 -34 vhcurveto
          -24 28 56 -17 64 hhcurveto
          34 35 4 12 37 hvcurveto
          -22 69 rlineto
          -16 -43 -41 -5 -38 hhcurveto
          -19 -17 0 3 -17 hvcurveto
          1 107 70 116 111 71 rrcurveto
          endchar
        </CharString>
        <CharString name="currency">
          75 150 69 255 70 -28 -20 hstemhm
          130 122 172 124 hintmask 10111000
          628 565 rmoveto
          -71 71 -96 -120 rlineto
          hintmask 11011000
          18 -31 -40 10 -51 hhcurveto
          -51 -40 -10 -18 -31 hvcurveto
          hintmask 10111000
          -96 120 -71 -71 116 -93 rlineto
          -25 -35 -11 -43 -47 vvcurveto
          -47 11 -44 25 -34 vhcurveto
          -116 -93 71 -71 96 119 rlineto
          -17 31 40 -10 51 hhcurveto
          51 40 10 17 31 hvcurveto
          96 -119 71 71 -116 93 rlineto
          25 34 11 44 47 vvcurveto
          47 -11 43 -25 34 vhcurveto
          -100 -11 rmoveto
          hintmask 11011000
          7 -22 5 -31 -34 vvcurveto
          -131 -22 -23 -83 -19 -22 6 9 -13 vhcurveto
          -8 22 -5 30 33 vvcurveto
          131 23 24 83 19 21 -5 -9 14 vhcurveto
          endchar
        </CharString>
        <CharString name="d">
          -83 callgsubr
          endchar
        </CharString>
        <CharString name="dagger">
          42 -202 941 hstemhm
          50 545 -387 226 hintmask 11000000
          595 416 rmoveto
          -10 152 rlineto
          hintmask 10100000
          -159 -26 17 197 -242 -20 15 -177 -166 26 10 -152 166 17 56 -635 rlineto
          79 hlineto
          55 636 rlineto
          endchar
        </CharString>
        <CharString name="daggerdbl">
          42 17 -21 22 -21 543 -20 hstemhm
          50 545 hintmask 01110000
          50 121 rmoveto
          10 -152 172 28 -30 -199 242 20 rlineto
          hintmask 10110000
          -28 178 179 -27 -10 152 -185 -20 -27 175 24 159 198 -19 -10 152 -172 -28 30 199 -242 -20 27 -178 -178 27 10 -152 185 19 27 -174 -24 -160 rlineto
          endchar
        </CharString>
        <CharString name="dcaron">
          -83 callgsubr
          323 269 -103 callgsubr
        </CharString>
        <CharString name="dcroat">
          -83 callgsubr
          260 197 -29 callgsubr
        </CharString>
        <CharString name="degree">
          -213 425 61 151 62 hstem
          50 73 142 75 vstem
          207 637 rmoveto
          12 11 -1 -2 8 hvcurveto
          14 -18 13 -30 -29 vvcurveto
          -50 -41 -21 -42 -12 -11 2 2 -8 vhcurveto
          -15 18 -13 29 30 vvcurveto
          49 44 21 40 vhcurveto
          -157 -75 rmoveto
          -74 39 -63 106 106 39 63 74 74 -39 63 -106 -106 -39 -63 -74 vhcurveto
          endchar
        </CharString>
        <CharString name="dieresis">
          -165 573 28 callsubr
          657 -102 callsubr
        </CharString>
        <CharString name="dieresis.case">
          -165 723 28 callsubr
          807 -102 callsubr
        </CharString>
        <CharString name="divide">
          9 74 131 81 83 70 131 hstemhm
          90 432 -307 160 -140 160 hintmask 11110000
          512 286 -7 callsubr
          hintmask 11100100
          305 311 -9 callsubr
          hintmask 11101000
          -20 -365 -9 callsubr
          endchar
        </CharString>
        <CharString name="dollar">
          -29 17 -21 542 -20 182 -20 hstemhm
          144 205 -129 176 -162 89 -86 88 hintmask 11100100
          hintmask 11110000
          144 384 rmoveto
          hintmask 11101000
          -100 76 -62 -63 vvcurveto
          -60 -40 -51 -99 -28 vhcurveto
          21 -65 rlineto
          hintmask 11100100
          55 12 45 13 37 16 -9 -108 rcurveline
          100 hlineto
          -13 150 rlineto
          hintmask 11101000
          61 44 18 50 46 vvcurveto
          hintmask 11110000
          60 -47 80 63 vvcurveto
          63 71 59 102 35 vhcurveto
          hintmask 11100010
          -121 162 -27 -18 -27 -18 -26 -19 rlinecurve
          9 104 rlineto
          -100 hlineto
          14 -168 rlineto
          hintmask 11110000
          -58 -55 -42 -64 -78 vvcurveto
          endchar
        </CharString>
        <CharString name="dotaccent">
          -296 588 34 callsubr
          733 -94 callgsubr
        </CharString>
        <CharString name="dotaccent.case">
          -296 738 34 callsubr
          883 -94 callgsubr
        </CharString>
        <CharString name="dotlessi">
          -16 callgsubr
          hstem
          70 214 vstem
          -68 callsubr
          endchar
        </CharString>
        <CharString name="e">
          -107 callsubr
          endchar
        </CharString>
        <CharString name="eacute">
          -107 callsubr
          -152 251 -91 callgsubr
        </CharString>
        <CharString name="ebreve">
          -107 callsubr
          33 358 -93 callgsubr
        </CharString>
        <CharString name="ecaron">
          -107 callsubr
          118 268 -30 callsubr
          -77 callgsubr
        </CharString>
        <CharString name="ecircumflex">
          -107 callsubr
          -185 234 -96 callgsubr
        </CharString>
        <CharString name="edieresis">
          -107 callsubr
          -214 277 -102 callsubr
        </CharString>
        <CharString name="edotaccent">
          -107 callsubr
          55 353 -94 callgsubr
        </CharString>
        <CharString name="egrave">
          -107 callsubr
          -92 373 -77 callsubr
        </CharString>
        <CharString name="eight">
          14 -24 64 269 52 239 65 hstemhm
          55 166 -149 152 164 174 -162 145 hintmask 11101100
          hintmask 11110100
          55 170 rmoveto
          -46 14 -54 46 -59 vhcurveto
          -20 52 71 -15 76 hhcurveto
          113 135 29 160 46 -14 54 -46 59 hvcurveto
          hintmask 11101010
          -38 13 rlineto
          40 29 41 50 70 vvcurveto
          42 -14 50 -42 55 vhcurveto
          18 -49 -65 14 -72 hhcurveto
          -105 -126 -27 -148 -42 14 -50 42 -55 hvcurveto
          hintmask 11110100
          6 -3 7 -2 7 -2 rrcurveto
          -46 -31 -47 -57 -78 vvcurveto
          293 135 rmoveto
          26 -31 14 -52 -41 vvcurveto
          -53 -20 -51 -46 -37 vhcurveto
          -19 -40 7 19 -26 hvcurveto
          -11 24 -5 30 28 vvcurveto
          60 21 62 49 39 vhcurveto
          20 18 -1 -3 19 hvcurveto
          hintmask 11101010
          -81 60 rmoveto
          -28 27 -15 47 36 vvcurveto
          47 22 45 48 33 vhcurveto
          20 42 -6 -17 28 hvcurveto
          10 -21 6 -27 -25 vvcurveto
          -53 -23 -55 -50 -35 vhcurveto
          -21 -19 1 3 -20 hvcurveto
          endchar
        </CharString>
        <CharString name="eightinferior">
          -173 -214 49 147 43 -5 -21 154 51 hstemhm
          61 107 -100 101 86 111 -105 98 hintmask 10110110
          hintmask 10111010
          61 -94 rmoveto
          -28 8 -34 28 -36 vhcurveto
          -13 33 41 -9 45 hhcurveto
          69 81 18 99 29 -8 33 -29 36 hvcurveto
          hintmask 10110101
          -13 5 rlineto
          22 19 21 30 38 vvcurveto
          25 -8 32 -28 34 vhcurveto
          12 -30 -39 8 -44 hhcurveto
          -64 -78 -17 -92 -27 9 -32 24 -30 hvcurveto
          hintmask 10111010
          15 -7 rlineto
          -25 -18 -30 -38 -37 vvcurveto
          194 7 rmoveto
          -29 -11 -28 -26 -21 vhcurveto
          -10 1 -19 4 -13 9 rrcurveto
          hintmask 11011010
          -5 13 -3 17 14 vvcurveto
          33 12 34 26 22 vhcurveto
          9 8 0 -2 10 hvcurveto
          hintmask 10111010
          13 -18 9 -28 -21 vvcurveto
          hintmask 11010101
          -86 173 rmoveto
          24 13 25 24 18 vhcurveto
          11 -1 23 -4 14 -6 rrcurveto
          4 -11 3 -16 -13 vvcurveto
          -27 -12 -31 -27 -19 vhcurveto
          -11 -12 1 2 -8 hvcurveto
          -15 16 -7 22 20 vvcurveto
          endchar
        </CharString>
        <CharString name="ellipsis">
          255 -10 176 32 callsubr
          -186 758 -472 186 100 186 hintmask 10100000
          hintmask 11011000
          50 78 rmoveto
          -76 callgsubr
          286 hmoveto
          -76 callgsubr
          286 hmoveto
          -62 callsubr
        </CharString>
        <CharString name="emacron">
          -107 callsubr
          94 231 -72 callsubr
        </CharString>
        <CharString name="emdash">
          255 273 80 hstem
          0 858 vstem
          846 289 rmoveto
          12 64 rlineto
          -846 hlineto
          -12 -96 rlineto
          endchar
        </CharString>
        <CharString name="endash">
          -45 257 96 hstem
          0 558 vstem
          546 289 rmoveto
          12 64 rlineto
          -546 hlineto
          -12 -96 rlineto
          endchar
        </CharString>
        <CharString name="eng">
          57 -242 72 170 -20 hstem
          379 85 vstem
          589 24 rmoveto
          133 -11 266 35 callgsubr
          -75 -70 -72 -113 15 callsubr
          22 176 -39 callsubr
          51 -496 -46 callsubr
          10 -114 8 -287 -51 vvcurveto
          -58 callsubr
          64 hhcurveto
          53 149 25 210 hvcurveto
          endchar
        </CharString>
        <CharString name="eogonek">
          -107 callsubr
          172 -471 -93 callsubr
        </CharString>
        <CharString name="equal">
          -24 callsubr
          endchar
        </CharString>
        <CharString name="eslash">
          -257 525 -20 hstem
          -20 376 vstem
          356 474 -8 callsubr
        </CharString>
        <CharString name="estimated">
          -3 -17 36 240 36 205 35 hstem
          44 113 291 113 vstem
          561 259 rmoveto
          154 -7 -81 122 -171 hhcurveto
          -160 -98 -113 -163 -152 94 -124 164 107 52 43 92 69 hvcurveto
          -35 21 rlineto
          -80 -46 -64 -40 -83 hhcurveto
          -55 -49 20 39 -41 hvcurveto
          181 vlineto
          36 vmoveto
          145 vlineto
          40 39 48 20 57 hhcurveto
          56 49 -20 -40 42 hvcurveto
          -145 vlineto
          endchar
        </CharString>
        <CharString name="eth">
          -18 -24 69 621 4 callgsubr
          174 vstem
          375 66 rmoveto
          -15 -31 -26 -6 -26 hhcurveto
          -18 -18 3 4 -17 hvcurveto
          -7 26 -8 33 58 vvcurveto
          48 3 66 12 21 vhcurveto
          41 -14 65 -43 30 -181 rrcurveto
          -2 162 rmoveto
          98 -41 -66 51 -75 hhcurveto
          -19 -21 -3 -7 -20 hvcurveto
          -48 -47 -33 -54 -102 vvcurveto
          -124 50 -64 171 94 85 28 37 45 vhcurveto
          12 59 5 55 52 vvcurveto
          237 -118 210 -100 66 vhcurveto
          -152 -101 74 -68 133 -185 36 -131 rlinecurve
          130 380 -8 callsubr
        </CharString>
        <CharString name="exclam">
          -220 -15 186 -165 -21 698 -20 hstemhm
          100 186 hintmask 01110000
          100 78 -37 callsubr
          vhcurveto
          hintmask 10110000
          51 -42 42 -51 vhcurveto
          hintmask 01110000
          -51 -42 -42 -51 hvcurveto
          196 605 rmoveto
          -181 -32 31 -425 89 9 88 408 rlineto
          endchar
        </CharString>
        <CharString name="exclamdown">
          -220 326 186 33 callgsubr
          137 186 hintmask 01100000
          323 419 rmoveto
          -42 callgsubr
          hintmask 10100000
          -51 42 -42 51 vhcurveto
          hintmask 01100000
          51 42 42 51 hvcurveto
          -196 -605 rmoveto
          181 32 -31 425 -89 -9 -88 -408 rlineto
          endchar
        </CharString>
        <CharString name="f">
          6 -21 765 -20 hstem
          329 750 rmoveto
          -99 -12 -109 -81 -11 -194 -90 -4 rcurveline
          14 callgsubr
          -165 -9 24 48 41 38 65 23 rlinecurve
          endchar
        </CharString>
        <CharString name="f_f">
          183 34 callgsubr
          hstemhm
          20 736 hintmask 10101000
          684 750 rmoveto
          -98 -11 -107 -80 -14 -188 -232 -6 rcurveline
          24 51 42 40 67 23 -37 171 rcurveline
          hintmask 11001000
          -99 -12 -110 -82 -10 -195 -90 -2 rcurveline
          6 -103 86 6 39 -377 45 callgsubr
          hintmask 10101000
          47 383 167 13 42 -405 45 callgsubr
          hintmask 10011000
          50 410 98 8 3 67 -163 -5 24 47 41 36 63 22 rlinecurve
          endchar
        </CharString>
        <CharString name="f_f_i">
          613 6 -21 375 101 -73 87 -54 92 51 186 hstemhm
          830 186 hintmask 10011100
          877 -15 rmoveto
          -47 callsubr
          -439 -24 25 39 39 32 56 19 rlinecurve
          -37 171 rlineto
          hintmask 10101100
          -96 -11 -105 -77 -17 -180 -230 -12 rcurveline
          24 49 41 37 65 23 -37 171 rcurveline
          hintmask 11001100
          -99 -12 -109 -81 -11 -193 -90 -5 rcurveline
          6 -103 86 8 39 -379 45 callgsubr
          hintmask 10101100
          47 387 166 15 43 -411 45 callgsubr
          hintmask 10011100
          51 419 175 16 rlineto
          -1 228 -60 callgsubr
          endchar
        </CharString>
        <CharString name="f_f_l">
          498 34 callgsubr
          110 164 -55 -20 hstemhm
          20 1011 hintmask 10100110
          868 -15 rmoveto
          -19 callsubr
          722 -135 -21 rlineto
          hintmask 10101010
          38 -74 -64 17 -54 hhcurveto
          -152 -75 -131 -148 -11 hvcurveto
          -233 -6 24 51 42 40 67 23 rlinecurve
          -37 171 rlineto
          hintmask 11001010
          -99 -12 -110 -82 -10 -195 -90 -2 rcurveline
          6 -103 86 6 39 -377 45 callgsubr
          hintmask 10100110
          47 383 168 13 42 -405 45 callgsubr
          hintmask 10011010
          50 410 97 8 3 67 -163 -5 rlineto
          73 39 66 39 75 37 callsubr
        </CharString>
        <CharString name="fi">
          152 6 44 callsubr
          71 41 callgsubr
          522 -15 rmoveto
          -47 callsubr
          -446 -36 -15 callgsubr
          25 rlineto
          -2 238 -60 callgsubr
          endchar
        </CharString>
        <CharString name="five">
          -29 -24 76 252 71 181 92 hstem
          360 174 vstem
          70 640 rmoveto
          -15 -22 62 -354 80 -10 42 26 44 16 62 8 rlinecurve
          -22 callsubr
          6 -19 -19 2 -20 hhcurveto
          -64 -68 -24 -33 -52 hvcurveto
          54 238 207 -18 18 118 rlineto
          endchar
        </CharString>
        <CharString name="fiveinferior">
          -199 -193 -21 413 -20 hstem
          69 189 rmoveto
          -12 -17 38 -216 53 -7 24 15 25 11 34 4 rlinecurve
          5 -14 2 -34 -26 vvcurveto
          -29 -3 -52 callgsubr
          4 -12 -12 1 -13 hhcurveto
          -34 -35 -9 -18 -30 hvcurveto
          28 122 121 -11 13 82 rlineto
          endchar
        </CharString>
        <CharString name="fj">
          152 -135 75 66 -21 527 -20 72 41 callgsubr
          685 512 rmoveto
          -446 -35 -15 callgsubr
          26 rlineto
          39 -372 -35 callgsubr
          -146 662 -60 callgsubr
          endchar
        </CharString>
        <CharString name="fl">
          142 6 -21 601 164 -55 -20 hstemhm
          20 655 hintmask 10110000
          512 -15 rmoveto
          -19 callsubr
          722 -135 -21 rlineto
          hintmask 11010000
          38 -74 -64 17 -54 hhcurveto
          -154 -75 -135 -152 -9 hvcurveto
          -90 -4 14 callgsubr
          -167 -9 rlineto
          75 40 66 41 77 37 callsubr
        </CharString>
        <CharString name="florin">
          -189 75 406 77 -57 56 297 -20 hstemhm
          -26 428 hintmask 00111000
          392 316 1 callsubr
          -174 hlineto
          20 60 29 47 114 18 -67 171 rcurveline
          -96 -11 -127 -79 -183 vvcurveto
          hintmask 11011000
          -23 -71 vlineto
          -10 -80 86 6 rlineto
          11 -108 25 -106 -107 -61 callsubr
          hintmask 00111000
          45 368 rlineto
          endchar
        </CharString>
        <CharString name="four">
          -27 6 -21 106 90 499 -20 hstem
          74 101 vstem
          280 680 rmoveto
          -101 -51 -105 -154 -184 vvcurveto
          -41 4 -43 13 -55 vhcurveto
          -35 44 93 -26 108 hhcurveto
          14 14 0 1 15 hvcurveto
          8 -107 111 11 38 356 -174 -12 10 -152 rlineto
          -5 -34 -33 -2 -33 hhcurveto
          -34 -32 2 4 -31 hvcurveto
          143 135 151 153 77 vhcurveto
          endchar
        </CharString>
        <CharString name="fourinferior">
          -197 -146 65 hstem
          69 72 vstem
          197 213 -64 callsubr
        </CharString>
        <CharString name="fraction">
          -2 callgsubr
        </CharString>
        <CharString name="franc">
          -29 -9 178 -78 77 -58 59 125 93 277 -20 hstemhm
          60 474 hintmask 10011100
          hintmask 00111100
          432 116 rmoveto
          hintmask 10011100
          10 53 27 callsubr
          hlineto
          12 101 156 24 rlineto
          93 -142 vlineto
          23 185 39 callsubr
          34 -481 rlineto
          -57 hlineto
          hintmask 01011100
          -10 -80 72 5 rlineto
          hintmask 10011100
          8 -103 110 5 rlineto
          hintmask 00111100
          13 108 rlineto
          endchar
        </CharString>
        <CharString name="g">
          -102 callgsubr
          endchar
        </CharString>
        <CharString name="gbreve">
          -102 callgsubr
          hintmask 11010000
          -156 783 -93 callgsubr
        </CharString>
        <CharString name="gcircumflex">
          -102 callgsubr
          hintmask 11010000
          -373 659 -96 callgsubr
        </CharString>
        <CharString name="gdotaccent">
          -102 callgsubr
          hintmask 11010000
          -133 778 -94 callgsubr
        </CharString>
        <CharString name="germandbls">
          138 -24 76 -46 -21 30 -21 666 65 hstemhm
          485 161 -114 169 hintmask 10010100
          522 371 rmoveto
          hintmask 01011000
          91 71 33 116 67 vvcurveto
          17 -3 17 -6 18 vhcurveto
          35 -56 -96 13 -75 hhcurveto
          -154 -152 -69 -193 hvcurveto
          -84 -4 rlineto
          -103 vlineto
          92 13 39 -384 rlineto
          hintmask 00110100
          45 callgsubr
          hintmask 10010100
          5 44 rlineto
          -45 74 68 -17 63 hhcurveto
          171 70 64 124 102 -32 51 -48 47 hvcurveto
          2 -13 -15 4 -22 hhcurveto
          -13 -15 -1 -4 -19 hvcurveto
          -135 -104 rmoveto
          42 26 46 20 32 8 rrcurveto
          15 -32 8 -52 -52 vvcurveto
          -48 -6 -47 -14 -32 vhcurveto
          -77 3 -87 18 -83 52 34 367 rcurveline
          hintmask 10011000
          8 82 23 73 79 13 rrcurveto
          52 -18 24 -51 -61 vvcurveto
          -81 -30 -101 -87 -61 vhcurveto
          endchar
        </CharString>
        <CharString name="grave">
          -165 563 31 callgsubr
          753 -77 callsubr
        </CharString>
        <CharString name="grave.case">
          -165 713 31 callgsubr
          903 -77 callsubr
        </CharString>
        <CharString name="greater">
          9 78 478 hstem
          86 421 vstem
          100 139 2 callsubr
          endchar
        </CharString>
        <CharString name="greaterequal">
          43 callgsubr
          hstemhm
          86 436 hintmask 10100000
          100 219 2 callsubr
          hintmask 01100000
          129 -387 16 callsubr
        </CharString>
        <CharString name="guillemotleft">
          115 30 callgsubr
          578 -3 callsubr
          285 -222 rmoveto
          106 177 -91 45 -162 -195 20 callgsubr
          rlineto
          endchar
        </CharString>
        <CharString name="guillemotright">
          115 30 callgsubr
          578 vstem
          648 2 callgsubr
          -285 222 rmoveto
          -106 -177 91 -45 162 195 19 callsubr
          rlineto
          endchar
        </CharString>
        <CharString name="guilsinglleft">
          -185 30 callgsubr
          278 -3 callsubr
          endchar
        </CharString>
        <CharString name="guilsinglright">
          -185 30 callgsubr
          278 vstem
          348 2 callgsubr
          endchar
        </CharString>
        <CharString name="h">
          -73 callsubr
          endchar
        </CharString>
        <CharString name="hbar">
          -73 callsubr
          302 -86 -29 callgsubr
        </CharString>
        <CharString name="hcircumflex">
          -73 callsubr
          -32 121 -96 callgsubr
        </CharString>
        <CharString name="hungarumlaut">
          -92 558 40 callgsubr
          609 -63 callsubr
        </CharString>
        <CharString name="hungarumlaut.case">
          -92 708 40 callgsubr
          759 -63 callsubr
        </CharString>
        <CharString name="hyphen">
          -158 274 93 hstemhm
          70 305 -303 302 hintmask 11000000
          hintmask 10100000
          375 274 rmoveto
          93 -300 vlineto
          -5 -140 rlineto
          endchar
        </CharString>
        <CharString name="i">
          7 callgsubr
          765 -20 hstem
          -13 callsubr
          endchar
        </CharString>
        <CharString name="iacute">
          -4 callsubr
          -12 151 -91 callgsubr
        </CharString>
        <CharString name="ibreve">
          -16 callgsubr
          63 101 26 -20 hstemhm
          28 299 hintmask 11011000
          -68 callsubr
          hintmask 11101000
          173 258 -90 callgsubr
          hintmask 11011000
          -44 callgsubr
        </CharString>
        <CharString name="icircumflex">
          -16 callgsubr
          hstem
          32 303 vstem
          -68 callsubr
          -38 134 -96 callgsubr
        </CharString>
        <CharString name="idieresis">
          -16 callgsubr
          80 168 hstem
          -4 152 58 152 vstem
          -68 callsubr
          -74 177 -102 callsubr
        </CharString>
        <CharString name="igrave">
          -4 callsubr
          48 273 -77 callsubr
        </CharString>
        <CharString name="ij">
          105 -135 75 66 -21 765 -20 hstemhm
          hintmask 01100000
          -13 callsubr
          hintmask 10100000
          354 hmoveto
          -34 callgsubr
          -42 callgsubr
          210 -145 rmoveto
          -214 -32 rlineto
          45 -432 -35 callgsubr
          endchar
        </CharString>
        <CharString name="imacron">
          -16 callgsubr
          118 92 hstem
          43 268 vstem
          -68 callsubr
          234 131 -72 callsubr
        </CharString>
        <CharString name="infinity">
          112 113 98 -98 102 183 102 -98 98 hstemhm
          50 69 477 69 hintmask 10011100
          hintmask 01011100
          495 215 rmoveto
          -29 -50 18 27 -26 hvcurveto
          87 22 50 55 52 hhcurveto
          60 22 -44 -68 hvcurveto
          -53 -20 -40 -22 -41 hhcurveto
          -134 212 rmoveto
          hintmask 10101100
          46 -31 -54 27 -56 hhcurveto
          -40 -48 -10 -35 -51 hvcurveto
          -18 -42 -13 -52 -57 vvcurveto
          -88 15 -103 140 42 56 10 63 51 vhcurveto
          hintmask 01011100
          -46 31 54 -27 56 hhcurveto
          40 48 10 35 51 hvcurveto
          18 42 13 52 57 vvcurveto
          88 -15 103 -140 -42 -56 -10 -63 -51 vhcurveto
          hintmask 10101100
          -141 -29 rmoveto
          29 50 -18 -27 26 hvcurveto
          -87 -22 -50 -55 -52 hhcurveto
          -60 -22 46 66 hvcurveto
          53 20 40 22 41 hhcurveto
          endchar
        </CharString>
        <CharString name="integral">
          -189 75 703 76 hstem
          -28 501 vstem
          306 21 callgsubr
          -110 -100 -46 -175 -16 1 -18 43 -436 hvcurveto
          -58 callsubr
          39 hhcurveto
          78 63 32 98 11 hvcurveto
          61 560 rlineto
          55 6 14 33 51 hhcurveto
          17 30 -7 -14 20 hvcurveto
          30 51 rlineto
          32 -40 -68 14 -59 hhcurveto
          endchar
        </CharString>
        <CharString name="iogonek">
          7 callgsubr
          765 -20 hstem
          -13 callsubr
          202 -748 -93 callsubr
        </CharString>
        <CharString name="itilde">
          -16 callgsubr
          92 43 callsubr
          -26 -20 hstemhm
          31 293 hintmask 11001100
          -68 callsubr
          151 217 rmoveto
          -14 callgsubr
          hintmask 11010100
          17 callgsubr
          hintmask 11100100
          -74 callgsubr
          hintmask 11001100
          -36 callgsubr
        </CharString>
        <CharString name="j">
          -249 -135 75 810 -20 hstem
          74 657 -60 callgsubr
          210 -145 rmoveto
          -214 -32 rlineto
          45 -432 -35 callgsubr
          endchar
        </CharString>
        <CharString name="j.alt">
          -249 -135 75 572 -20 hstem
          -52 336 vstem
          284 512 rmoveto
          -214 -32 rlineto
          45 -432 1 -11 -9 -61 callsubr
          endchar
        </CharString>
        <CharString name="jcircumflex">
          -249 -135 886 hstem
          -52 381 vstem
          220 -5 rmoveto
          -97 -12 -62 -33 -78 hhcurveto
          -39 -41 13 32 -40 hvcurveto
          30 51 rlineto
          -14 20 30 -7 17 hhcurveto
          51 20 33 55 9 -1 11 -45 432 hvcurveto
          214 32 rlineto
          -258 102 -96 callgsubr
        </CharString>
        <CharString name="k">
          -27 callsubr
          endchar
        </CharString>
        <CharString name="kgreenlandic">
          -5 6 -21 34 -21 515 -20 43 -20 hstemhm
          70 518 hintmask 01011000
          hintmask 10011000
          -5 callgsubr
          24 194 29 31 125 -234 rlineto
          hintmask 01011000
          190 13 -217 324 155 162 -67 52 -202 -238 rlineto
          hintmask 01101000
          27 215 -58 callgsubr
          endchar
        </CharString>
        <CharString name="l">
          -49 callsubr
          endchar
        </CharString>
        <CharString name="lacute">
          -49 callsubr
          -22 138 -91 callgsubr
        </CharString>
        <CharString name="lcaron">
          -49 callsubr
          344 -14 -103 callgsubr
        </CharString>
        <CharString name="ldot">
          -83 -56 callgsubr
          244 -355 rmoveto
          -62 callsubr
        </CharString>
        <CharString name="less">
          9 78 478 hstem
          105 421 vstem
          512 495 3 callsubr
          endchar
        </CharString>
        <CharString name="lessequal">
          43 callgsubr
          hstemhm
          90 436 hintmask 10100000
          512 575 3 callsubr
          hintmask 01100000
          283 -375 16 callsubr
        </CharString>
        <CharString name="lira">
          29 0 46 -46 60 113 75 -57 58 72 77 -57 58 201 65 33 callgsubr
          60 512 -455 198 hintmask 1001010110000000
          559 hmoveto
          hintmask 0101010110000000
          -6 113 -345 -53 40 34 25 42 16 50 rlinecurve
          143 10 10 53 rlineto
          -139 hlineto
          5 27 3 30 1 30 140 10 rcurveline
          10 53 rlineto
          hintmask 1001011001000000
          -148 hlineto
          1 21 0 21 22 vvcurveto
          -12 callsubr
          hintmask 1010100101000000
          -50 9 -46 11 -42 vhcurveto
          -47 22 callgsubr
          78 5 8 -26 7 -25 4 -24 rlinecurve
          -107 22 callgsubr
          120 9 -5 -44 -19 -52 -43 -36 rlinecurve
          -3 -46 rlineto
          endchar
        </CharString>
        <CharString name="logicalnot">
          9 270 99 hstem
          421 90 vstem
          413 81 rmoveto
          45 callgsubr
          279 -422 vlineto
          -10 -110 350 22 rlineto
          endchar
        </CharString>
        <CharString name="lozenge">
          16 -65 56 618 56 hstem
          70 479 vstem
          70 300 rmoveto
          160 -365 rlineto
          152 hlineto
          167 365 -160 365 rlineto
          -152 hlineto
          34 -56 rmoveto
          191 -308 -115 -310 -190 308 rlineto
          endchar
        </CharString>
        <CharString name="lslash">
          -49 callsubr
          290 -209 -8 callsubr
        </CharString>
        <CharString name="m">
          327 30 callsubr
          hstem
          859 -6 rmoveto
          133 -11 296 35 callgsubr
          -70 -65 -70 -110 -47 hvcurveto
          -8 hlineto
          -14 73 -20 65 -29 36 rrcurveto
          4 -12 -13 13 callgsubr
          -67 -62 -64 -101 -47 hvcurveto
          -7 hlineto
          19 156 -39 callsubr
          51 -496 99 9 9 73 30 247 76 72 44 18 37 callgsubr
          116 9 36 330 76 61 47 19 37 callgsubr
          endchar
        </CharString>
        <CharString name="macron">
          -221 611 42 callsubr
          611 -72 callsubr
        </CharString>
        <CharString name="macron.case">
          -221 761 42 callsubr
          761 -72 callsubr
        </CharString>
        <CharString name="minus">
          9 286 41 callsubr
          286 -7 callsubr
          endchar
        </CharString>
        <CharString name="mu">
          -23 callgsubr
          75 19 61 59 42 113 rrcurveto
          7 hlineto
          hintmask 01110000
          20 -190 -80 callsubr
          7 -43 3 -41 -39 vvcurveto
          -166 -58 -114 -106 -24 vhcurveto
          endchar
        </CharString>
        <CharString name="multiply">
          9 527 -20 27 -20 hstemhm
          86 440 hintmask 01100000
          460 120 rmoveto
          66 52 -154 154 128 142 -52 66 -142 -142 rlineto
          hintmask 10100000
          -135 135 -85 -71 149 -135 -142 -142 71 -85 145 161 rlineto
          endchar
        </CharString>
        <CharString name="n">
          -95 callsubr
          endchar
        </CharString>
        <CharString name="nacute">
          -95 callsubr
          146 150 -91 callgsubr
        </CharString>
        <CharString name="napostrophe">
          -95 callsubr
          -34 188 -103 callgsubr
        </CharString>
        <CharString name="nbspace">
          -303 endchar
        </CharString>
        <CharString name="ncaron">
          -95 callsubr
          416 9 callsubr
        </CharString>
        <CharString name="nine">
          -29 596 69 hstem
          62 174 154 134 vstem
          387 575 rmoveto
          2 -19 1 -17 -16 vvcurveto
          -160 -105 -20 -34 -6 vhcurveto
          -12 21 -3 66 48 vvcurveto
          58 8 33 7 26 vhcurveto
          4 17 18 3 18 hhcurveto
          26 26 -6 -15 31 hvcurveto
          -27 -256 rmoveto
          -53 -98 -86 -105 -98 -63 170 -115 rcurveline
          100 66 131 193 237 vvcurveto
          52 -5 55 -12 59 vhcurveto
          37 -45 -85 28 -94 hhcurveto
          -171 -50 -64 -124 -102 33 -54 48 -47 hvcurveto
          -6 22 20 -4 20 hhcurveto
          51 56 23 36 41 hvcurveto
          endchar
        </CharString>
        <CharString name="nineinferior">
          -199 3 -21 170 52 hstem
          62 115 78 91 vstem
          228 -21 rmoveto
          -36 -60 -47 -48 -48 -37 107 -71 rcurveline
          62 40 80 117 141 vvcurveto
          31 -3 33 -8 38 vhcurveto
          23 -28 -52 18 -56 hhcurveto
          -107 -30 -40 -77 -62 22 -34 30 -30 hvcurveto
          -3 13 12 -1 11 hhcurveto
          28 23 8 17 23 hvcurveto
          31 132 rmoveto
          -85 -52 -14 -20 -5 vhcurveto
          -5 15 -1 33 26 vvcurveto
          31 3 18 5 15 vhcurveto
          2 8 9 2 8 hhcurveto
          14 14 -4 -7 15 hvcurveto
          1 -10 1 -10 -7 vvcurveto
          endchar
        </CharString>
        <CharString name="notequal">
          -24 callsubr
          -384 -337 22 callsubr
        </CharString>
        <CharString name="ntilde">
          -95 callsubr
          312 216 -95 callgsubr
        </CharString>
        <CharString name="numbersign">
          191 129 95 179 96 hstem
          50 694 vstem
          391 -68 rmoveto
          70 -23 73 220 rlineto
          165 hlineto
          15 110 -146 -6 60 179 101 4 15 83 rlineto
          -87 29 callsubr
          -191 29 callsubr
          -154 hlineto
          -14 -110 139 6 -49 -179 -106 -4 -14 -83 rlineto
          95 hlineto
          -54 -197 70 -23 73 220 rlineto
          211 hlineto
          -121 270 rmoveto
          199 8 -50 -178 -209 -9 rlineto
          endchar
        </CharString>
        <CharString name="o">
          -104 callsubr
          endchar
        </CharString>
        <CharString name="oacute">
          -104 callsubr
          -222 420 -91 callgsubr
        </CharString>
        <CharString name="obreve">
          -104 callsubr
          -38 527 -93 callgsubr
        </CharString>
        <CharString name="ocircumflex">
          -104 callsubr
          -248 403 -96 callgsubr
        </CharString>
        <CharString name="odieresis">
          -104 callsubr
          -284 446 -102 callsubr
        </CharString>
        <CharString name="oe">
          253 -40 callsubr
          50 91 231 90 228 111 vstem
          372 211 -98 callgsubr
          46 -195 rmoveto
          -27 52 70 -13 86 -86 callsubr
          -92 callsubr
          -49 -27 -51 -54 -36 -73 -49 69 -70 50 -66 35 rrcurveto
          -84 callgsubr
          72 46 17 23 34 hvcurveto
          239 364 -94 callsubr
          endchar
        </CharString>
        <CharString name="ogonek">
          36 callsubr
          124 61 vstem
          350 -91 -93 callsubr
        </CharString>
        <CharString name="ograve">
          -104 callsubr
          -162 542 -77 callsubr
        </CharString>
        <CharString name="ohungarumlaut">
          -104 callsubr
          -284 398 -63 callsubr
        </CharString>
        <CharString name="omacron">
          -104 callsubr
          24 400 -72 callsubr
        </CharString>
        <CharString name="one">
          -130 7 -21 681 -20 hstem
          0 383 vstem
          347 667 rmoveto
          -347 -175 52 -108 115 82 37 -480 33 callsubr
          69 654 rlineto
          endchar
        </CharString>
        <CharString name="onehalf">
          192 0 63 -63 80 272 52 269 -20 32 -20 hstemhm
          608 130 hintmask 01101100
          206 -35 callsubr
          -176 -54 -31 callsubr
          rlineto
          hintmask 01110100
          42 395 rlineto
          209 -383 -33 callgsubr
          hintmask 10101100
          -44 callsubr
        </CharString>
        <CharString name="oneinferior">
          -259 -209 414 hstem
          23 241 vstem
          234 205 -3 callgsubr
        </CharString>
        <CharString name="onequarter">
          192 11 -21 64 65 554 -20 32 -20 hstemhm
          468 72 hintmask 11011000
          233 -35 callsubr
          -203 -54 -31 callsubr
          rlineto
          hintmask 11101000
          42 395 rlineto
          312 -260 -64 callsubr
        </CharString>
        <CharString name="onesuperior">
          -259 693 -20 hstem
          23 241 vstem
          234 705 -3 callgsubr
        </CharString>
        <CharString name="ordfeminine">
          -195 269 80 179 34 54 93 hstem
          49 99 94 99 vstem
          259 391 rmoveto
          64 5 rlineto
          18 174 0 7 6 vvcurveto
          88 -58 38 -88 -45 -46 -11 -10 -27 vhcurveto
          28 -93 rlineto
          14 25 24 7 19 hhcurveto
          37 32 -21 -36 hvcurveto
          3 -20 -19 0 -17 hhcurveto
          -109 -28 -26 -49 -40 19 -41 28 -19 hvcurveto
          -1 5 5 0 5 hhcurveto
          58 49 31 49 27 hvcurveto
          6 hlineto
          71 -170 1 callsubr
          -272 22 callgsubr
          rlineto
          194 257 rmoveto
          -17 -50 -45 -13 -26 -5 rrcurveto
          -4 6 -4 17 13 vvcurveto
          13 3 10 4 7 vhcurveto
          3 18 17 1 16 hhcurveto
          13 18 -1 -1 7 hvcurveto
          endchar
        </CharString>
        <CharString name="ordmasculine">
          -190 269 80 37 63 hstem
          64 66 146 77 vstem
          188 814 rmoveto
          -60 -39 -64 -108 -142 vvcurveto
          -31 3 -33 7 -34 vhcurveto
          -24 27 44 -17 64 hhcurveto
          119 25 47 92 143 -72 110 -90 37 hvcurveto
          85 -263 rmoveto
          -30 -3 -25 -8 -35 vhcurveto
          -9 -25 -33 -4 -32 hhcurveto
          -14 -17 0 3 -14 hvcurveto
          1 86 43 95 73 71 rrcurveto
          19 -41 10 -52 -59 vvcurveto
          56 -256 1 callsubr
          -272 22 callgsubr
          rlineto
          endchar
        </CharString>
        <CharString name="oslash">
          -70 callsubr
          426 649 rmoveto
          -66 15 -229 -845 66 -15 rlineto
          41 735 -104 callgsubr
          endchar
        </CharString>
        <CharString name="oslashacute">
          -70 callsubr
          399 549 rmoveto
          -66 15 -202 -745 66 -15 rlineto
          41 735 -104 callgsubr
          -222 420 -91 callgsubr
        </CharString>
        <CharString name="otilde">
          -104 callsubr
          -56 486 -95 callgsubr
        </CharString>
        <CharString name="p">
          32 callgsubr
          hstem
          111 -217 rmoveto
          93 9 27 218 rlineto
          -20 43 53 -14 59 3 callgsubr
          -75 -70 -73 -112 -52 hvcurveto
          -7 hlineto
          22 176 -58 callgsubr
          159 -407 -15 callsubr
        </CharString>
        <CharString name="paragraph">
          29 -200 905 hstem
          80 462 vstem
          415 382 rmoveto
          -44 -165 -97 -158 -133 -106 183 -153 rcurveline
          100 83 118 237 297 vvcurveto
          65 -5 68 -12 74 vhcurveto
          46 -45 -85 35 -94 hhcurveto
          -171 -50 -80 -155 -91 40 -72 54 -36 hvcurveto
          -7 19 20 -2 18 hhcurveto
          71 62 44 84 39 hvcurveto
          endchar
        </CharString>
        <CharString name="parenleft">
          -203 -98 836 hstem
          80 105 vstem
          290 -80 rmoveto
          -75 132 -30 118 105 vvcurveto
          184 92 143 93 105 vhcurveto
          -167 31 rlineto
          -86 -131 -37 -133 -128 vvcurveto
          -160 58 -153 92 -131 vhcurveto
          endchar
        </CharString>
        <CharString name="parenright">
          -203 -98 836 hstem
          215 105 vstem
          169 -98 rmoveto
          93 131 58 153 160 vvcurveto
          128 -37 133 -86 131 vhcurveto
          -167 -31 rlineto
          93 -105 92 -143 -184 vvcurveto
          -105 -30 -118 -75 -132 vhcurveto
          endchar
        </CharString>
        <CharString name="partialdiff">
          -18 -24 69 hstem
          24 171 192 139 vstem
          335 66 rmoveto
          -15 -35 -28 -6 -26 hhcurveto
          -11 -20 2 8 -20 hvcurveto
          24 9 147 53 78 vhcurveto
          33 -13 47 -35 -136 vvcurveto
          -16 -1 -18 -1 -20 vhcurveto
          -166 536 rmoveto
          154 -92 60 -152 4 -123 -14 -7 rcurveline
          98 -17 -54 51 -75 hhcurveto
          -19 -21 -3 -7 -22 hvcurveto
          -66 -44 -75 -87 -141 vvcurveto
          -79 49 -40 136 94 91 28 37 55 vhcurveto
          53 120 24 109 96 vvcurveto
          163 -77 118 -135 73 vhcurveto
          endchar
        </CharString>
        <CharString name="percent">
          192 -2 callsubr
          hintmask 11011111
          -59 callsubr
          hintmask 11111111
          -16 callsubr
          hintmask 11011111
          -23 -25 -4 -10 -32 hvcurveto
          1 callgsubr
          hintmask 11111111
          -73 callgsubr
          hintmask 11011111
          -8 callgsubr
          endchar
        </CharString>
        <CharString name="period">
          -317 -10 176 hstem
          50 186 vstem
          50 78 rmoveto
          -62 callsubr
        </CharString>
        <CharString name="periodcentered">
          -317 200 176 hstem
          50 186 vstem
          50 288 rmoveto
          -62 callsubr
        </CharString>
        <CharString name="perthousand">
          578 -2 callsubr
          51 26 callsubr
          hintmask 1011111111000000
          hintmask 1101110100000000
          -59 callsubr
          hintmask 1010001100000000
          -16 callsubr
          hintmask 1101110100000000
          -23 -25 -4 -10 -32 hvcurveto
          hintmask 1010001111000000
          1 callgsubr
          -73 callgsubr
          -8 callgsubr
          499 -89 -57 callgsubr
        </CharString>
        <CharString name="pi">
          139 -24 82 -52 -21 424 90 hstemhm
          30 682 hintmask 01110000
          681 412 rmoveto
          16 88 rlineto
          -651 hlineto
          -16 -132 79 5 42 -388 99 9 50 392 115 8 32 -308 rlineto
          hintmask 10110000
          -74 8 50 -36 73 hhcurveto
          48 51 9 20 35 hvcurveto
          -27 66 rlineto
          -8 -19 -19 -5 -17 hhcurveto
          -34 -24 18 44 hvcurveto
          3 1 4 4 vvcurveto
          34 276 rlineto
          endchar
        </CharString>
        <CharString name="plus">
          9 281 88 151 -20 30 -20 39 callgsubr
          108 16 callgsubr
          hlineto
          hintmask 11010000
          151 vlineto
          hintmask 10110000
          12 callgsubr
          endchar
        </CharString>
        <CharString name="plusminus">
          43 callgsubr
          262 88 39 callgsubr
          188 16 callgsubr
          151 hlineto
          12 callgsubr
          hintmask 01110000
          245 -334 -10 callgsubr
          hintmask 10110000
          38 callgsubr
        </CharString>
        <CharString name="product">
          176 567 84 hstem
          20 739 vstem
          511 -165 -29 callsubr
          60 721 74 4 15 82 rlineto
          -724 hlineto
          -15 -124 83 5 48 -697 99 9 58 700 154 9 rlineto
          endchar
        </CharString>
        <CharString name="q">
          117 -196 -21 215 -21 459 60 18 -20 hstemhm
          hintmask 11010000
          467 -217 rmoveto
          93 9 90 722 -192 -29 -22 -29 rlineto
          hintmask 11100000
          27 -41 -50 13 -54 -21 callgsubr
          97 86 49 122 55 hvcurveto
          7 hlineto
          -11 252 -68 callgsubr
          endchar
        </CharString>
        <CharString name="question">
          -196 -15 186 -165 -21 540 158 33 callgsubr
          100 186 -28 129 hintmask 01010100
          hintmask 01011000
          100 78 -37 callsubr
          vhcurveto
          hintmask 10011000
          51 -42 42 -51 vhcurveto
          hintmask 01011000
          -51 -42 -42 -51 hvcurveto
          hintmask 01100100
          158 447 rmoveto
          -72 -19 -80 -108 -73 vhcurveto
          57 -70 rlineto
          81 40 118 108 146 vvcurveto
          33 -3 34 -11 44 vhcurveto
          27 -34 -74 21 -86 hhcurveto
          hintmask 01010100
          -43 -48 -5 -14 -46 hvcurveto
          hintmask 01100100
          35 -173 rlineto
          22 48 57 12 76 hhcurveto
          endchar
        </CharString>
        <CharString name="questiondown">
          -196 -186 158 354 186 33 callgsubr
          20 129 -28 186 hintmask 10110000
          hintmask 10101000
          307 419 rmoveto
          -42 callgsubr
          hintmask 11001000
          -51 42 -42 51 vhcurveto
          hintmask 10101000
          51 42 42 51 hvcurveto
          hintmask 10110000
          -158 -447 rmoveto
          72 19 80 108 73 vhcurveto
          -57 70 rlineto
          -81 -40 -118 -108 -146 vvcurveto
          -33 3 -34 11 -44 vhcurveto
          -27 34 74 -21 86 hhcurveto
          43 48 5 14 46 hvcurveto
          -35 173 rlineto
          -22 -48 -57 -12 -76 hhcurveto
          endchar
        </CharString>
        <CharString name="quotedbl">
          -151 4 callsubr
          268 -267 11 callsubr
          endchar
        </CharString>
        <CharString name="quotedblbase">
          -27 -15 186 -154 -21 hstemhm
          70 186 64 186 hintmask 01110000
          164 -6 -62 callgsubr
          hintmask 10110000
          30 -2 28 -5 26 vhcurveto
          -7 callgsubr
          -54 callgsubr
          hintmask 01110000
          254 -2 -71 callsubr
          hintmask 10110000
          -7 callgsubr
          14 callsubr
        </CharString>
        <CharString name="quotedblleft">
          -27 24 callsubr
          64 186 hintmask 01110000
          hintmask 10110000
          162 636 -52 callsubr
          246 2 -52 callsubr
          endchar
        </CharString>
        <CharString name="quotedblright">
          -27 25 callsubr
          64 186 hintmask 10110000
          hintmask 01110000
          164 624 -51 callgsubr
          254 -2 -51 callgsubr
          endchar
        </CharString>
        <CharString name="quoteleft">
          -277 24 callsubr
          hintmask 01100000
          hintmask 10100000
          162 636 -52 callsubr
          endchar
        </CharString>
        <CharString name="quoteright">
          -277 25 callsubr
          hintmask 10100000
          hintmask 01100000
          164 624 -51 callgsubr
          endchar
        </CharString>
        <CharString name="quotesinglbase">
          -41 callgsubr
        </CharString>
        <CharString name="quotesingle">
          -381 4 callsubr
          endchar
        </CharString>
        <CharString name="r">
          -78 callsubr
          endchar
        </CharString>
        <CharString name="racute">
          -78 callsubr
          51 150 -91 callgsubr
        </CharString>
        <CharString name="radical">
          -4 -165 922 hstem
          35 747 vstem
          214 265 rmoveto
          -179 -27 197 -403 90 15 275 836 175 18 10 53 rlineto
          -262 hlineto
          -232 -778 rlineto
          endchar
        </CharString>
        <CharString name="rcaron">
          -78 callsubr
          347 9 callsubr
        </CharString>
        <CharString name="registered">
          247 108 40 485 44 8 -20 80 40 hstemhm
          100 40 335 120 135 40 hintmask 10111110
          -34 callsubr
          31 callsubr
          42 131 106 18 83 hhcurveto
          -153 -483 rmoveto
          66 6 15 150 14 3 162 -175 45 27 -31 61 -37 66 -32 61 rlinecurve
          hintmask 11011110
          53 30 33 43 53 vvcurveto
          17 -3 22 -8 23 vhcurveto
          20 -34 -45 8 -45 hhcurveto
          -70 -79 -16 -12 -37 hvcurveto
          164 -16 rmoveto
          25 -16 12 -23 -23 vvcurveto
          -38 -30 -44 -52 -26 vhcurveto
          17 165 rlineto
          3 10 9 2 9 hhcurveto
          endchar
        </CharString>
        <CharString name="ring">
          -296 537 25 callgsubr
          651 -99 callsubr
        </CharString>
        <CharString name="ring.case">
          -296 687 25 callgsubr
          801 -99 callsubr
        </CharString>
        <CharString name="ringacute">
          11 callgsubr
          651 -89 callsubr
        </CharString>
        <CharString name="ringacute.case">
          11 callgsubr
          801 -89 callsubr
        </CharString>
        <CharString name="s">
          -184 -87 12 callsubr
          194 145 vstem
          60 329 rmoveto
          -133 134 -64 -86 vvcurveto
          -32 -17 -29 -62 -34 vhcurveto
          44 -59 rlineto
          109 43 71 63 96 75 -91 55 80 vvcurveto
          59 47 49 64 41 vhcurveto
          -164 110 rlineto
          -79 -62 -56 -73 -99 vvcurveto
          endchar
        </CharString>
        <CharString name="s.alt">
          -75 callgsubr
          endchar
        </CharString>
        <CharString name="sacute">
          -75 callgsubr
          51 321 -91 callgsubr
        </CharString>
        <CharString name="scaron">
          -184 533 -20 163 -20 37 -20 0 callgsubr
          hintmask 10101000
          hintmask 10110000
          60 310 rmoveto
          hintmask 10101000
          -55 callsubr
          hintmask 10110000
          -59 callgsubr
          hintmask 11001000
          314 338 -30 callsubr
          rlineto
          hintmask 10101000
          -77 callgsubr
        </CharString>
        <CharString name="scedilla">
          -184 -208 91 127 -21 29 -21 0 callgsubr
          hintmask 10110000
          80 -187 rmoveto
          -14 37 47 -7 30 hhcurveto
          hintmask 11001000
          50 96 21 79 39 -24 32 -33 26 hvcurveto
          37 31 19 37 58 vvcurveto
          hintmask 10110000
          -59 callgsubr
          hintmask 10101000
          -11 callgsubr
          -9 -23 -28 -21 vhcurveto
          76 -36 30 -33 16 -32 17 callsubr
        </CharString>
        <CharString name="scircumflex">
          -75 callgsubr
          18 304 -96 callgsubr
        </CharString>
        <CharString name="section">
          17 -254 1003 hstem
          57 155 196 155 vstem
          563 221 rmoveto
          123 -138 46 103 vvcurveto
          48 30 44 58 40 vhcurveto
          -221 124 rlineto
          -62 -58 -47 -63 -79 vvcurveto
          -37 8 -35 14 -29 vhcurveto
          -88 -38 -60 -57 -77 -124 137 -46 -104 vvcurveto
          -47 -29 -44 -57 -40 vhcurveto
          221 -125 rlineto
          62 58 45 63 80 vvcurveto
          37 -8 33 -14 30 vhcurveto
          93 38 56 55 81 vvcurveto
          -155 -32 rmoveto
          -25 -13 -20 -36 -25 vhcurveto
          -64 70 -83 52 66 vvcurveto
          24 11 19 39 27 vhcurveto
          66 -75 80 -48 -65 vvcurveto
          endchar
        </CharString>
        <CharString name="semicolon">
          -317 6 -21 32 -21 328 176 32 callsubr
          -183 186 hintmask 01110000
          144 -6 -74 callsubr
          hintmask 10110000
          -54 callgsubr
          hintmask 01110000
          -87 416 rmoveto
          hintmask 01101000
          -62 callsubr
        </CharString>
        <CharString name="seven">
          -93 7 -21 560 102 hstem
          15 445 vstem
          15 656 rmoveto
          18 -118 186 16 -38 -568 33 callsubr
          169 622 -15 22 rlineto
          endchar
        </CharString>
        <CharString name="seveninferior">
          -237 121 73 hstem
          33 276 vstem
          33 199 rmoveto
          13 -82 108 8 -22 -334 76 7 101 373 -12 18 rlineto
          endchar
        </CharString>
        <CharString name="six">
          -29 -24 69 635 -20 hstem
          350 174 vstem
          199 66 rmoveto
          30 181 65 43 41 14 rrcurveto
          -1 callgsubr
          -4 -17 -18 -3 -18 hhcurveto
          -26 -26 6 15 -31 hvcurveto
          -10 169 rmoveto
          44 132 97 106 133 85 -183 122 rcurveline
          -100 -66 -118 -170 -80 callgsubr
          85 -28 94 hhcurveto
          171 50 15 callgsubr
          7 -20 -21 3 -19 hhcurveto
          -75 -66 -51 -98 -41 hvcurveto
          endchar
        </CharString>
        <CharString name="sixinferior">
          -199 -214 52 160 -21 42 -21 hstemhm
          232 114 hintmask 10110000
          304 154 rmoveto
          -107 71 rlineto
          -53 -42 -82 -114 -141 vvcurveto
          -30 3 -33 8 -38 vhcurveto
          -24 27 52 -17 58 hhcurveto
          105 31 40 76 38 callsubr
          63 -20 33 -31 30 vhcurveto
          4 -12 -14 13 callgsubr
          -28 -29 -15 -24 -23 hvcurveto
          -5 3 rlineto
          hintmask 10110000
          32 56 40 55 60 45 rrcurveto
          hintmask 11010000
          -78 -177 rmoveto
          5 -14 1 -32 -26 vvcurveto
          -29 -4 -20 -4 -15 vhcurveto
          -2 -9 -9 -1 -8 hhcurveto
          -13 -14 3 7 -17 hvcurveto
          17 87 32 31 23 11 rrcurveto
          endchar
        </CharString>
        <CharString name="slash">
          36 callgsubr
          80 -68 22 callsubr
        </CharString>
        <CharString name="space">
          -303 endchar
        </CharString>
        <CharString name="sterling">
          29 0 46 226 77 -59 58 252 65 33 callgsubr
          117 198 hintmask 10101100
          452 296 1 callsubr
          -149 hlineto
          1 37 1 38 39 vvcurveto
          hintmask 11010100
          -12 callsubr
          -70 17 -62 17 -56 vhcurveto
          -61 22 callgsubr
          92 6 rlineto
          6 -25 4 -24 -23 vvcurveto
          -48 -17 -65 -52 -44 vhcurveto
          -3 -46 rlineto
          449 hlineto
          -6 113 -332 -51 -3 7 rlineto
          hintmask 10101100
          58 54 23 76 9 86 rrcurveto
          endchar
        </CharString>
        <CharString name="summation">
          36 -162 92 596 -20 32 -20 147 -20 hstemhm
          50 579 hintmask 10111000
          65 -87 rmoveto
          -15 -82 564 15 -15 124 -320 -39 185 347 -272 260 422 45 15 82 -534 -15 rlineto
          hintmask 11011000
          -15 -124 205 -350 rlineto
          endchar
        </CharString>
        <CharString name="t">
          -65 callgsubr
          endchar
        </CharString>
        <CharString name="tbar">
          -65 callgsubr
          288 -161 -29 callgsubr
        </CharString>
        <CharString name="tcaron">
          -65 callgsubr
          344 280 -103 callgsubr
        </CharString>
        <CharString name="thorn">
          32 callgsubr
          180 -20 hstem
          82 122 221 169 vstem
          82 -217 rmoveto
          122 9 22 220 rlineto
          -20 43 56 -16 61 3 callgsubr
          -83 -78 -89 -133 -53 hvcurveto
          -8 hlineto
          42 415 -58 callgsubr
          157 -609 -15 callsubr
        </CharString>
        <CharString name="three">
          -29 -24 76 548 65 33 callgsubr
          303 186 -129 174 hintmask 10101000
          227 254 rmoveto
          42 26 44 16 32 8 rrcurveto
          -22 callsubr
          hintmask 10110000
          6 -21 -21 2 -21 hhcurveto
          64 60 35 66 64 vvcurveto
          17 -3 17 -6 18 -25 callgsubr
          -49 -25 -35 -62 hvcurveto
          52 -108 rlineto
          hintmask 11010000
          142 103 rlineto
          40 -24 21 -40 -47 vvcurveto
          -51 -24 -77 -64 -61 vhcurveto
          -14 -13 rlineto
          endchar
        </CharString>
        <CharString name="threeinferior">
          -199 -214 56 154 -21 24 -21 174 35 callsubr
          hintmask 10110100
          163 -53 -57 callsubr
          hintmask 11011000
          -32 callsubr
          hintmask 11010100
          -11 -12 rlineto
          endchar
        </CharString>
        <CharString name="threequarters">
          192 11 -21 64 65 147 56 191 -20 139 52 33 callgsubr
          184 121 -85 112 136 72 hintmask 1111010110000000
          261 -35 callsubr
          -342 -312 -57 callsubr
          hintmask 1111011010000000
          -37 callgsubr
          hintmask 1111101010000000
          -23 callsubr
          hintmask 1111010110000000
          -11 -12 rlineto
          473 -42 -64 callsubr
        </CharString>
        <CharString name="threesuperior">
          -199 286 56 191 -20 139 35 callsubr
          hintmask 11101000
          163 447 -57 callsubr
          hintmask 11110000
          -32 callsubr
          hintmask 11101000
          -11 -12 rlineto
          endchar
        </CharString>
        <CharString name="tilde">
          -143 585 43 callsubr
          -26 -20 hstemhm
          87 293 hintmask 00110000
          277 697 rmoveto
          -14 callgsubr
          hintmask 01010000
          17 callgsubr
          hintmask 10010000
          -74 callgsubr
          hintmask 00110000
          -36 callgsubr
        </CharString>
        <CharString name="tilde.case">
          -143 716 176 -157 43 callsubr
          hstemhm
          87 293 hintmask 10010000
          hintmask 01010000
          277 847 rmoveto
          hintmask 00110000
          -79 callsubr
          hhcurveto
          hintmask 01010000
          -82 callsubr
        </CharString>
        <CharString name="trademark">
          320 604 67 -50 49 -2 -20 hstemhm
          37 808 hintmask 01010000
          37 663 rmoveto
          hintmask 10010000
          4 -67 26 2 30 4 27 2 rlinecurve
          30 -342 71 6 rlineto
          hintmask 01010000
          37 349 83 9 2 45 rlineto
          439 -410 rmoveto
          59 10 -18 391 -149 9 -67 -274 rlineto
          hintmask 00110000
          -58 271 -149 -6 -28 -395 65 3 10 278 127 -287 58 9 65 305 rlineto
          endchar
        </CharString>
        <CharString name="two">
          -24 0 82 518 65 33 callgsubr
          295 197 hintmask 10110000
          90 497 rmoveto
          hintmask 11010000
          152 103 rlineto
          36 -22 17 -43 -52 vvcurveto
          -139 -113 -207 -149 -70 vhcurveto
          7 -67 rlineto
          459 113 hlineto
          -314 -31 rlineto
          9 vlineto
          167 102 140 183 161 vvcurveto
          27 -4 27 -8 26 -25 callgsubr
          -59 -25 -35 -62 hvcurveto
          endchar
        </CharString>
        <CharString name="twoinferior">
          -196 -200 29 callgsubr
          90 -42 callsubr
        </CharString>
        <CharString name="twosuperior">
          -196 300 29 callgsubr
          590 -42 callsubr
        </CharString>
        <CharString name="u">
          -106 callsubr
          endchar
        </CharString>
        <CharString name="uacute">
          -106 callsubr
          -36 573 -91 callgsubr
        </CharString>
        <CharString name="ubreve">
          -106 callsubr
          148 680 -93 callgsubr
        </CharString>
        <CharString name="ucircumflex">
          -106 callsubr
          -62 556 -96 callgsubr
        </CharString>
        <CharString name="udieresis">
          -106 callsubr
          -98 599 -102 callsubr
        </CharString>
        <CharString name="ugrave">
          -106 callsubr
          24 695 -77 callsubr
        </CharString>
        <CharString name="uhungarumlaut">
          -106 callsubr
          -98 551 -63 callsubr
        </CharString>
        <CharString name="umacron">
          -106 callsubr
          210 553 -72 callsubr
        </CharString>
        <CharString name="underscore">
          -28 -125 110 hstem
          40 495 vstem
          521 -98 rmoveto
          14 83 rlineto
          -481 hlineto
          -14 -110 rlineto
          endchar
        </CharString>
        <CharString name="uni0122">
          -97 callsubr
          -101 -190 -103 callgsubr
        </CharString>
        <CharString name="uni0123">
          -102 callgsubr
          hintmask 11010000
          -228 743 rmoveto
          5 22 10 28 36 29 -54 51 rcurveline
          -55 -49 -20 -59 -74 vvcurveto
          -25 2 -24 4 -22 vhcurveto
          -16 15 29 -11 33 hhcurveto
          59 16 27 52 48 -18 31 -29 -13 -9 -4 -6 -7 hvcurveto
          endchar
        </CharString>
        <CharString name="uni0136">
          -28 callsubr
          -74 -577 -103 callgsubr
        </CharString>
        <CharString name="uni0137">
          -27 callsubr
          -72 -523 -103 callgsubr
        </CharString>
        <CharString name="uni013B">
          -69 callsubr
          66 -192 -103 callgsubr
        </CharString>
        <CharString name="uni013C">
          -49 callsubr
          103 -884 -103 callgsubr
        </CharString>
        <CharString name="uni0145">
          -84 callsubr
          -253 -201 -103 callgsubr
        </CharString>
        <CharString name="uni0146">
          -95 callsubr
          245 -682 -103 callgsubr
        </CharString>
        <CharString name="uni0156">
          -89 callgsubr
          -1 -811 -103 callgsubr
        </CharString>
        <CharString name="uni0157">
          -78 callsubr
          101 -682 -103 callgsubr
        </CharString>
        <CharString name="uni0162">
          -52 -54 callsubr
          112 5 callsubr
          -58 62 -22 37 -35 -33 callsubr
          -121 742 -49 callgsubr
          endchar
        </CharString>
        <CharString name="uni0163">
          6 12 callsubr
          67 5 callsubr
          -59 62 -22 37 -34 -33 callsubr
          50 76 -64 callgsubr
          endchar
        </CharString>
        <CharString name="uni0218">
          -79 callgsubr
          155 -641 -103 callgsubr
        </CharString>
        <CharString name="uni0219">
          -184 -331 934 -812 158 hstemhm
          60 188 -133 158 -79 145 hintmask 10001000
          hintmask 10100000
          60 380 rmoveto
          hintmask 10001000
          -55 callsubr
          hintmask 10100000
          -59 callgsubr
          hintmask 01010000
          135 -581 -103 callgsubr
        </CharString>
        <CharString name="uni021A">
          -38 callsubr
          -281 -866 -103 callgsubr
        </CharString>
        <CharString name="uni021B">
          -65 callgsubr
          87 -590 -103 callgsubr
        </CharString>
        <CharString name="uni02C9">
          -221 611 92 hstem
          57 268 vstem
          318 611 -72 callsubr
        </CharString>
        <CharString name="uni0394">
          -18 callgsubr
        </CharString>
        <CharString name="uni03A9">
          -63 callgsubr
        </CharString>
        <CharString name="uni03BC">
          -23 callgsubr
          79 20 62 63 43 123 rrcurveto
          hintmask 01110000
          21 -205 -80 callsubr
          7 -43 3 -41 -39 vvcurveto
          -166 -58 -114 -106 -24 vhcurveto
          endchar
        </CharString>
        <CharString name="uni2113">
          -249 -24 82 hstem
          70 303 vstem
          346 71 rmoveto
          -8 -19 -19 -5 -17 hhcurveto
          -34 -24 18 44 hvcurveto
          3 1 4 4 vvcurveto
          50 585 -39 callsubr
          41 -563 rlineto
          -108 8 64 -36 87 hhcurveto
          34 34 9 20 35 hvcurveto
          endchar
        </CharString>
        <CharString name="uni2215">
          -2 callgsubr
        </CharString>
        <CharString name="uogonek">
          -106 callsubr
          350 -149 -93 callsubr
        </CharString>
        <CharString name="uring">
          -106 callsubr
          200 593 -99 callsubr
        </CharString>
        <CharString name="utilde">
          -106 callsubr
          130 639 -95 callgsubr
        </CharString>
        <CharString name="v">
          -45 6 44 callsubr
          hstem
          244 513 rmoveto
          -39 callsubr
          222 -495 81 13 195 490 -81 22 -129 -380 -9 callgsubr
          endchar
        </CharString>
        <CharString name="w">
          -85 callgsubr
          endchar
        </CharString>
        <CharString name="wacute">
          -85 callgsubr
          31 509 -91 callgsubr
        </CharString>
        <CharString name="wcircumflex">
          -85 callgsubr
          -1 492 -96 callgsubr
        </CharString>
        <CharString name="wdieresis">
          -85 callgsubr
          -33 535 -102 callsubr
        </CharString>
        <CharString name="wgrave">
          -85 callgsubr
          83 631 -77 callsubr
        </CharString>
        <CharString name="x">
          -63 -1 -21 532 28 callgsubr
          hmoveto
          91 -22 92 186 83 -186 214 22 -162 256 153 232 -91 22 -90 -181 -66 181 -214 -30 143 -248 rlineto
          endchar
        </CharString>
        <CharString name="y">
          -88 callgsubr
          endchar
        </CharString>
        <CharString name="yacute">
          -88 callgsubr
          -155 689 -91 callgsubr
        </CharString>
        <CharString name="ycircumflex">
          -88 callgsubr
          -149 672 -96 callgsubr
        </CharString>
        <CharString name="ydieresis">
          -88 callgsubr
          -178 715 -102 callsubr
        </CharString>
        <CharString name="yen">
          -45 7 -21 128 75 -57 57 103 77 -56 56 296 -20 hstemhm
          4 539 hintmask 10101110
          -11 callsubr
          rlineto
          hintmask 11010110
          124 -269 rlineto
          -54 hlineto
          -12 -80 100 6 40 -86 3 -20 rlineto
          -151 hlineto
          -12 -80 172 10 19 -133 100 10 rlineto
          hintmask 10101110
          21 132 134 8 12 53 rlineto
          -137 hlineto
          7 45 32 76 106 6 12 53 rlineto
          -93 hlineto
          116 271 -18 callsubr
          endchar
        </CharString>
        <CharString name="ygrave">
          -88 callgsubr
          -55 811 -77 callsubr
        </CharString>
        <CharString name="z">
          -66 callsubr
          endchar
        </CharString>
        <CharString name="zacute">
          -66 callsubr
          -321 131 -91 callgsubr
        </CharString>
        <CharString name="zcaron">
          -66 callsubr
          -31 8 callsubr
        </CharString>
        <CharString name="zdotaccent">
          -66 callsubr
          -94 233 -94 callgsubr
        </CharString>
        <CharString name="zero">
          41 -23 92 504 92 hstem
          81 128 227 128 vstem
          461 1 rmoveto
          47 50 56 109 156 vvcurveto
          83 -14 97 -44 107 vhcurveto
          45 -49 -67 17 -73 hhcurveto
          -39 -40 -7 -17 -54 hvcurveto
          -47 -50 -56 -109 -156 vvcurveto
          -83 14 -97 44 -107 vhcurveto
          -45 49 67 -17 73 hhcurveto
          39 40 7 17 54 hvcurveto
          -245 75 rmoveto
          -5 25 -2 28 29 vvcurveto
          140 53 166 97 109 vhcurveto
          28 21 -2 -5 21 hvcurveto
          5 -25 2 -28 -29 vvcurveto
          -140 -53 -167 -97 -108 vhcurveto
          -28 -21 2 5 -21 hvcurveto
          endchar
        </CharString>
        <CharString name="zeroinferior">
          -167 -214 56 306 56 hstem
          70 26 callsubr
          vstem
          304 -197 -57 callgsubr
        </CharString>
      <CharString index="0">
        390 -15 -29 callsubr
        28 276 rlineto
        1 7 1 19 12 vvcurveto
        145 -97 59 -146 -20 callsubr
        vhcurveto
        -67 callsubr
        52 -32 -55 6 hvcurveto
        -92 callgsubr
        106 82 59 94 44 hvcurveto
        8 hlineto
        -9 84 -98 callsubr
        return
      </CharString>
      <CharString index="1">
        -45 callsubr
        hstem
        -107 callgsubr
        return
      </CharString>
      <CharString index="2">
        rmoveto
        -85 callsubr
        196 43 78 153 -50 callgsubr
        hvcurveto
        -100 callgsubr
        return
      </CharString>
      <CharString index="3">
        rmoveto
        -84 callgsubr
        176 46 70 138 180 -131 113 -119 62 hvcurveto
        134 -328 -98 callgsubr
        return
      </CharString>
      <CharString index="4">
        rmoveto
        -5 -22 -10 -28 -36 -29 54 -51 rcurveline
        55 49 20 59 74 vvcurveto
        25 -2 24 -4 22 vhcurveto
        16 -15 -29 11 -33 hhcurveto
        -59 -16 -27 -52 -48 18 -31 29 13 9 4 6 7 hvcurveto
        endchar
      </CharString>
      <CharString index="5">
        117 -220 81 157 -21 440 59 18 -20 hstemhm
        hintmask 11100000
        439 402 rmoveto
        1 -16 1 -14 -14 vvcurveto
        -206 -118 -65 -50 -9 vhcurveto
        -10 27 -10 88 63 vvcurveto
        77 7 56 7 34 -43 callgsubr
        -23 30 38 callsubr
        211 112 rmoveto
        -47 callgsubr
        -75 -147 -120 33 -101 49 -48 hvcurveto
        -48 callgsubr
        106 93 57 142 53 hvcurveto
        8 hlineto
        21 -205 0 -8 -8 vvcurveto
        -67 -34 -47 -76 -41 -51 13 26 -59 vhcurveto
        -28 -50 rlineto
        -47 71 62 -23 73 hhcurveto
        103 62 70 105 13 hvcurveto
        return
      </CharString>
      <CharString index="6">
        hhcurveto
        -78 -41 -51 -63 -36 5 -30 21 -30 hvcurveto
        -12 31 37 -6 26 hhcurveto
        78 41 51 63 hvcurveto
        -76 13 rmoveto
        -30 -8 -32 -36 -17 vhcurveto
        -11 -20 3 4 -6 hvcurveto
        -4 12 -3 15 18 vvcurveto
        31 8 32 36 17 vhcurveto
        11 20 -3 -5 6 hvcurveto
        4 -11 3 -16 -18 vvcurveto
        endchar
      </CharString>
      <CharString index="7">
        150 -438 rmoveto
        -54 -4 -41 -14 -61 vhcurveto
        -15 -43 -59 -8 -56 hhcurveto
        -29 -28 2 5 -24 hvcurveto
        150 76 166 130 120 vhcurveto
        33 -71 18 -88 -105 vvcurveto
        return
      </CharString>
      <CharString index="8">
        2 12 -21 294 81 298 -20 hstem
        531 hmoveto
        -86 callgsubr
        -441 -14 47 -659 rlineto
        return
      </CharString>
      <CharString index="9">
        rmoveto
        -42 -5 -43 -11 -42 vhcurveto
        -13 -39 -55 -8 -50 hhcurveto
        -25 -25 2 4 -21 hvcurveto
        122 79 135 112 59 vhcurveto
        27 -53 13 -59 -62 vvcurveto
        return
      </CharString>
      <CharString index="10">
        -101 -24 97 627 -14 callsubr
        278 700 rmoveto
        -19 callgsubr
        -190 -80 callgsubr
        92 -28 106 -72 callgsubr
        183 115 197 185 118 vhcurveto
        return
      </CharString>
      <CharString index="11">
        rmoveto
        34 -48 118 65 76 -62 75 90 -187 92 rlineto
        endchar
      </CharString>
      <CharString index="12">
        rmoveto
        -79 callsubr
        -82 callsubr
      </CharString>
      <CharString index="13">
        rmoveto
        -50 -50 0 -12 -49 hvcurveto
        -19 -37 -9 -49 -42 vvcurveto
        -4 16 19 -1 19 hhcurveto
        39 43 6 11 29 hvcurveto
        9 36 3 36 56 vvcurveto
        endchar
      </CharString>
      <CharString index="14">
        -90 callgsubr
        -44 callgsubr
      </CharString>
      <CharString index="15">
        2 -22 rlineto
        5 -37 -34 2 -29 hhcurveto
        -181 -46 -41 -81 -65 30 -67 45 -31 hvcurveto
        -1 8 9 0 8 hhcurveto
        return
      </CharString>
      <CharString index="16">
        rmoveto
        34 -68 204 65 -60 125 rlineto
        endchar
      </CharString>
      <CharString index="17">
        rmoveto
        -39 -16 -19 -42 -44 hhcurveto
        -40 -18 31 44 -25 hvcurveto
        -53 -33 rlineto
        -65 27 34 -78 73 hhcurveto
        return
      </CharString>
      <CharString index="18">
        99 -17 -21 713 -21 callsubr
        100 10 27 252 9 2 10 1 10 3 rlinecurve
        271 -292 70 39 -168 319 rlineto
        87 49 58 69 90 vvcurveto
        29 -26 callgsubr
        -130 44 callgsubr
        275 -20 rmoveto
        43 -26 20 -40 -43 vvcurveto
        -68 -52 -78 -95 -43 vhcurveto
        30 288 rlineto
        6 18 19 4 17 hhcurveto
        return
      </CharString>
      <CharString index="19">
        -37 -212 84 641 -20 hstem
        536 488 rmoveto
        -81 22 -129 -381 -9 callgsubr
        -66 384 -39 callsubr
        207 -503 rlineto
        -73 -12 -49 -32 -59 hhcurveto
        -21 -22 4 8 -22 hvcurveto
        -12 callgsubr
        44 36 118 47 hvcurveto
        return
      </CharString>
      <CharString index="20">
        -56 callsubr
        -23 -25 -4 -10 -32 hvcurveto
        1 callgsubr
        -73 callgsubr
        -51 callsubr
        return
      </CharString>
      <CharString index="21">
        4 103 -276 -32 27 223 226 -17 -5 90 -213 -2 26 207 -20 callgsubr
        return
      </CharString>
      <CharString index="22">
        225 6 -21 526 -20 hstem
        236 511 rmoveto
        -206 -31 189 -495 99 13 94 221 146 -234 81 13 159 484 -81 22 -104 -385 -9 callgsubr
        -92 336 -72 22 -135 -355 -9 callgsubr
        return
      </CharString>
      <CharString index="23">
        -60 -30 -128 -138 -187 vvcurveto
        -47 4 -50 7 callsubr
        -33 41 65 -25 95 hhcurveto
        return
      </CharString>
      <CharString index="24">
        98 -2 -21 459 60 220 -20 hstem
        468 -15 rmoveto
        -19 callsubr
        722 -39 callsubr
        15 -215 rlineto
        16 -40 -49 12 -52 -21 callgsubr
        100 87 52 128 55 hvcurveto
        8 hlineto
        -16 243 -68 callgsubr
        return
      </CharString>
      <CharString index="25">
        rmoveto
        -17 callsubr
        -32 -68 -38 vhcurveto
        48 -65 rlineto
        121 48 79 70 106 -65 callsubr
        return
      </CharString>
      <CharString index="26">
        53 6 17 52 6 callsubr
        -62 -61 -9 -58 hhcurveto
        -30 -29 2 4 -28 hvcurveto
        138 104 130 166 89 vhcurveto
        return
      </CharString>
      <CharString index="27">
        -76 callsubr
        -37 45 return
      </CharString>
      <CharString index="28">
        -24 -21 745 -20 hstem
        49 440 -82 callgsubr
        return
      </CharString>
      <CharString index="29">
        -45 -54 callsubr
        -11 callsubr
        198 -429 31 -223 100 10 38 239 172 405 -18 callsubr
        return
      </CharString>
      <CharString index="30">
        -118 65 -34 -48 116 -137 rlineto
        endchar
      </CharString>
      <CharString index="31">
        -48 25 -40 68 68 25 40 48 48 -25 40 -68 -68 -25 -40 -48 vhcurveto
        return
      </CharString>
      <CharString index="32">
        -184 533 -20 0 callgsubr
        hintmask 10100000
        hintmask 11000000
        60 310 rmoveto
        hintmask 10100000
        -55 callsubr
        hintmask 11000000
        -59 callgsubr
        return
      </CharString>
      <CharString index="33">
        35 37 -26 33 hhcurveto
        47 27 56 85 11 hvcurveto
        -60 16 rlineto
        return
      </CharString>
      <CharString index="34">
        -51 8 -58 25 -63 vhcurveto
        -23 32 42 -17 44 hhcurveto
        24 24 4 13 35 hvcurveto
        -152 89 rmoveto
        86 33 102 59 68 vhcurveto
        return
      </CharString>
      <CharString index="35">
        hhcurveto
        55 59 7 18 58 hvcurveto
        -34 108 rlineto
        -26 -69 -67 -10 -65 hhcurveto
        -33 -32 2 5 -31 hvcurveto
        return
      </CharString>
      <CharString index="36">
        -193 122 rlineto
        -150 -109 -58 -193 -181 vvcurveto
        -58 6 -56 11 -52 0 callsubr
        return
      </CharString>
      <CharString index="37">
        -25 callsubr
        33 callsubr
        71 669 -238 -15 rlineto
        return
      </CharString>
      <CharString index="38">
        -24 -67 -66 -9 -63 hhcurveto
        -33 -39 2 4 -30 hvcurveto
        return
      </CharString>
      <CharString index="39">
        rmoveto
        1 -16 1 -16 -15 vvcurveto
        -217 -117 -68 -51 -10 vhcurveto
        -10 29 -10 92 67 vvcurveto
        81 7 59 7 36 -43 callgsubr
        -24 30 hvcurveto
        return
      </CharString>
      <CharString index="40">
        97 617 -20 hstem
        60 101 257 121 vstem
        return
      </CharString>
      <CharString index="41">
        -43 12 -21 669 -20 hstem
        55 660 rmoveto
        3 -67 238 -24 -273 -511 -3 -67 489 9 -6 103 -373 -35 390 478 -14 104 rlineto
        return
      </CharString>
      <CharString index="42">
        6 12 callsubr
        151 -15 -64 callgsubr
        return
      </CharString>
      <CharString index="43">
        -29 callsubr
        52 423 106 15 3 67 -99 -5 20 162 -249 -33 15 -140 -88 -4 6 -103 92 13 rlineto
        return
      </CharString>
      <CharString index="44">
        185 0 74 509 75 hstem
        70 182 284 182 vstem
        70 454 rmoveto
        -114 82 -147 111 -92 vhcurveto
        -189 -27 -3 -74 rlineto
        227 hlineto
        49 113 rlineto
        -63 66 -32 129 86 vvcurveto
        90 37 99 105 104 38 -99 -90 -86 -32 -129 -63 -66 vhcurveto
        49 -113 rlineto
        227 hlineto
        -3 74 -190 27 rlineto
        111 92 83 147 114 vvcurveto
        176 -129 28 -196 -195 -128 -29 -175 vhcurveto
        endchar
      </CharString>
      <CharString index="45">
        rmoveto
        -9 -48 -20 -34 -42 -35 75 -60 rcurveline
        64 58 24 93 87 vvcurveto
        return
      </CharString>
      <CharString index="46">
        277 -9 78 -63 -21 36 -21 151 54 81 79 300 -20 hstemhm
        30 780 hintmask 00101110
        787 277 rmoveto
        -5 90 -266 -3 -39 194 329 39 3 67 -381 -12 -211 13 -187 -665 rlineto
        hintmask 01011110
        -45 callgsubr
        rlineto
        hintmask 10001110
        66 -160 rlineto
        hintmask 00101110
        310 9 rlineto
        hintmask 10011110
        4 103 -235 -34 -46 227 rlineto
        -265 256 rmoveto
        144 -348 -4 callgsubr
        return
      </CharString>
      <CharString index="47">
        -37 callsubr
        -42 callgsubr
        return
      </CharString>
      <CharString index="48">
        71 -91 53 76 vvcurveto
        57 47 47 64 39 vhcurveto
        -164 105 rlineto
        -79 -59 -56 -69 -95 vvcurveto
        return
      </CharString>
      <CharString index="49">
        -39 callsubr
        rlineto
        return
      </CharString>
      <CharString index="50">
        -87 callgsubr
        -13 -12 1 3 -12 hvcurveto
        -3 15 -1 14 17 vvcurveto
        endchar
      </CharString>
      <CharString index="51">
        6 -21 731 -17 callgsubr
        722 -58 callgsubr
        return
      </CharString>
      <CharString index="52">
        166 5 -21 681 -20 hstem
        513 -16 rmoveto
        100 10 71 669 -228 -15 29 -344 -197 2 38 359 -228 -15 57 -664 100 10 24 233 211 17 rlineto
        return
      </CharString>
      <CharString index="53">
        -69 -19 -32 -61 -57 21 -36 34 16 10 4 7 9 hvcurveto
        return
      </CharString>
      <CharString index="54">
        66 -15 rlineto
        26 816 -105 callgsubr
        return
      </CharString>
      <CharString index="55">
        -19 -4 -15 vhcurveto
        -45 3 -51 12 -49 32 -35 -62 rcurveline
        -30 53 55 -11 45 hhcurveto
        104 44 40 76 63 -20 33 -31 30 hvcurveto
        return
      </CharString>
      <CharString index="56">
        -74 callsubr
        -54 callgsubr
        return
      </CharString>
      <CharString index="57">
        237 -121 184 -150 62 return
      </CharString>
      <CharString index="58">
        rmoveto
        6 -103 140 14 50 -576 33 callsubr
        62 588 140 14 3 67 rlineto
        return
      </CharString>
      <CharString index="59">
        -4 8 24 -4 8 hhcurveto
        return
      </CharString>
      <CharString index="60">
        -192 -29 -22 -29 rlineto
        hintmask 11100000
        27 -41 -50 13 -54 hhcurveto
        -158 -50 return
      </CharString>
      <CharString index="61">
        rmoveto
        -238 -15 rlineto
        43 -496 0 -7 -7 vvcurveto
        -48 -17 -42 -55 -26 callsubr
        73 34 131 14 hvcurveto
        return
      </CharString>
      <CharString index="62">
        100 -15 34 144 266 22 return
      </CharString>
      <CharString index="63">
        58 53 36 91 54 hvcurveto
        endchar
      </CharString>
      <CharString index="64">
        vhcurveto
        9 17 22 5 24 hhcurveto
        37 42 -12 return
      </CharString>
      <CharString index="65">
        51 -42 42 -51 -51 -42 -42 -51 vhcurveto
        return
      </CharString>
      <CharString index="66">
        -317 6 -21 32 -21 32 callsubr
        hintmask 01100000
        144 -6 -74 callsubr
        hintmask 10100000
        14 callsubr
      </CharString>
      <CharString index="67">
        -9 -22 -14 -4 -25 hhcurveto
        -37 -28 9 17 -39 hvcurveto
        return
      </CharString>
      <CharString index="68">
        36 63 45 53 75 50 rrcurveto
        return
      </CharString>
      <CharString index="69">
        256 -24 87 93 57 2 48 102 147 27 -20 hstemhm
        35 156 184 90 228 111 hintmask 10101111
        366 214 -98 callsubr
        return
      </CharString>
      <CharString index="70">
        3 -9 -7 2 -10 hhcurveto
        32 34 18 36 36 vvcurveto
        10 -1 10 -5 13 vhcurveto
        23 -37 -44 9 -44 hhcurveto
        -70 -32 -17 -23 -40 hvcurveto
        return
      </CharString>
      <CharString index="71">
        -34 -15 -13 -11 -15 hhcurveto
        endchar
      </CharString>
      <CharString index="72">
        1 -10 -10 -61 callsubr
        return
      </CharString>
      <CharString index="73">
        -51 42 -42 51 51 42 42 51 return
      </CharString>
      <CharString index="74">
        rmoveto
        29 18 34 25 29 19 rrcurveto
        17 -10 6 -20 -25 vvcurveto
        -82 -64 -125 -90 -42 vhcurveto
        4 -48 rlineto
        283 80 hlineto
        return
      </CharString>
      <CharString index="75">
        -13 -12 1 3 -12 hvcurveto
        -3 15 -1 14 17 vvcurveto
        return
      </CharString>
      <CharString index="76">
        -182 -24 74 615 -20 hstem
        346 665 -46 callgsubr
        return
      </CharString>
      <CharString index="77">
        660 rmoveto
        -100 -5 return
      </CharString>
      <CharString index="78">
        1 callsubr
        -372 22 callgsubr
        rlineto
        endchar
      </CharString>
      <CharString index="79">
        2 -33 4 -36 9 -43 rrcurveto
        270 345 rmoveto
        hintmask 11001111
        -91 callsubr
        hintmask 10101111
        -39 callgsubr
        return
      </CharString>
      <CharString index="80">
        rmoveto
        -14 37 47 -7 30 hhcurveto
        50 96 21 79 return
      </CharString>
      <CharString index="81">
        -6 34 -12 36 -25 callgsubr
        return
      </CharString>
      <CharString index="82">
        vhcurveto
        35 -56 -74 13 -75 hhcurveto
        -116 return
      </CharString>
      <CharString index="83">
        hvcurveto
        183 115 197 185 23 callgsubr
        return
      </CharString>
      <CharString index="84">
        87 5 -21 22 44 callsubr
        hstemhm
        65 187 hintmask 01110000
        252 507 rmoveto
        -187 -15 rlineto
        -221 38 -259 61 -241 vhcurveto
        88 20 rlineto
        hintmask 10110000
        193 vlineto
        return
      </CharString>
      <CharString index="85">
        hvcurveto
        -30 97 rlineto
        return
      </CharString>
      <CharString index="86">
        hhcurveto
        -158 -50 -78 -153 -125 33 -105 49 -50 hvcurveto
        -48 callgsubr
        return
      </CharString>
      <CharString index="87">
        211 25 3 67 return
      </CharString>
      <CharString index="88">
        -100 -66 -108 return
      </CharString>
      <CharString index="89">
        56 0 54 611 4 callgsubr
        559 vstem
        50 hmoveto
        559 hlineto
        -210 650 -142 15 rlineto
        32 -81 rmoveto
        208 -530 -346 23 rlineto
        endchar
      </CharString>
      <CharString index="90">
        -20 hstem
        -6 callgsubr
        return
      </CharString>
      <CharString index="91">
        -249 6 44 callsubr
        return
      </CharString>
      <CharString index="92">
        25 45 40 35 62 22 rlinecurve
        -37 171 -98 -12 -109 -80 -12 -192 rlinecurve
        -90 -7 6 -103 85 12 40 -383 99 9 49 400 178 return
      </CharString>
      <CharString index="93">
        -35 -37 26 -33 hhcurveto
        return
      </CharString>
      <CharString index="94">
        650 -242 15 return
      </CharString>
      <CharString index="95">
        -36 callsubr
        39 hhcurveto
        78 return
      </CharString>
      <CharString index="96">
        -126 134 -61 -82 vvcurveto
        -30 return
      </CharString>
      <CharString index="97">
        rmoveto
        10 83 rlineto
        -422 hlineto
        return
      </CharString>
      <CharString index="98">
        rlineto
        -8 hlineto
        return
      </CharString>
      <CharString index="99">
        -51 callsubr
        -32 callgsubr
        return
      </CharString>
      <CharString index="100">
        18 -18 -34 14 -39 hhcurveto
        return
      </CharString>
      <CharString index="101">
        -5 callgsubr
        64 return
      </CharString>
      <CharString index="102">
        121 -15 -29 callsubr
        return
      </CharString>
      <CharString index="103">
        -226 2 rlineto
        return
      </CharString>
      <CharString index="104">
        -31 callsubr
        42 395 rlineto
        endchar
      </CharString>
      <CharString index="105">
        -107 -81 820 hstem
        90 316 vstem
        90 -35 callsubr
        endchar
      </CharString>
      <CharString index="106">
        12 -21 3 -66 -48 vvcurveto
        -58 -8 -33 -7 -26 vhcurveto
        return
      </CharString>
      <CharString index="107">
        hstemhm
        60 188 -54 145 return
      </CharString>
      <CharString index="108">
        -30 -32 -34 -67 -93 vvcurveto
        return
      </CharString>
      <CharString index="109">
        216 rmoveto
        19 callsubr
        130 -177 -105 -178 91 -45 rlineto
        return
      </CharString>
      <CharString index="110">
        hhcurveto
        158 -6 callsubr
        -13 13 callgsubr
        return
      </CharString>
      <CharString index="111">
        -20 hstem
        50 return
      </CharString>
      <CharString index="112">
        -33 -32 9 22 -26 hvcurveto
        -7 -113 rlineto
        -23 25 33 -9 32 98 53 88 97 hhcurveto
        return
      </CharString>
      <CharString index="113">
        -20 hstem
        116 -15 -29 callsubr
        return
      </CharString>
      <CharString index="114">
        -249 6 -21 return
      </CharString>
      <CharString index="115">
        -187 -41 callsubr
        return
      </CharString>
      <CharString index="116">
        188 -30 callsubr
        -77 callgsubr
      </CharString>
      <CharString index="117">
        807 -30 callsubr
        -77 callgsubr
      </CharString>
      <CharString index="118">
        -296 502 50 109 50 87 -20 hstem
        57 57 91 61 vstem
        273 return
      </CharString>
      <CharString index="119">
        -110 10 10 -161 rlineto
        -161 hlineto
        -10 -110 177 11 rlineto
        return
      </CharString>
      <CharString index="120">
        2 -12 hhcurveto
        return
      </CharString>
      <CharString index="121">
        6 -103 85 13 40 -384 99 9 49 403 99 15 3 67 return
      </CharString>
      <CharString index="122">
        64 124 102 -33 54 -48 47 hvcurveto
        return
      </CharString>
      <CharString index="123">
        rmoveto
        83 -10 rlineto
        178 vlineto
        151 10 10 83 rlineto
        -161 return
      </CharString>
      <CharString index="124">
        -75 callsubr
        hhcurveto
        return
      </CharString>
      <CharString index="125">
        -14 -24 -67 callgsubr
        return
      </CharString>
      <CharString index="126">
        -40 callgsubr
        endchar
      </CharString>
      <CharString index="127">
        7 -75 186 -175 85 45 return
      </CharString>
      <CharString index="128">
        665 rmoveto
        return
      </CharString>
      <CharString index="129">
        hlineto
        -10 -80 return
      </CharString>
      <CharString index="130">
        118 vhcurveto
        return
      </CharString>
      <CharString index="131">
        -28 106 hhcurveto
        return
      </CharString>
      <CharString index="132">
        48 132 48 hstem
        34 75 88 76 vstem
        273 return
      </CharString>
      <CharString index="133">
        185 hstem
        80 303 vstem
        return
      </CharString>
      <CharString index="134">
        611 -20 return
      </CharString>
      <CharString index="135">
        -20 hstem
        30 return
      </CharString>
      <CharString index="136">
        80 272 52 hstem
        209 130 vstem
        94 return
      </CharString>
      <CharString index="137">
        21 445 hstem
        70 return
      </CharString>
      <CharString index="138">
        190 hstem
        110 238 vstem
        170 return
      </CharString>
      <CharString index="139">
        74 -196 -21 193 62 485 -20 return
      </CharString>
      <CharString index="140">
        0 -20 hstemhm
        return
      </CharString>
      <CharString index="141">
        6 -21 374 101 -77 84 -59 68 return
      </CharString>
      <CharString index="142">
        -10 callsubr
        -13 13 callgsubr
        return
      </CharString>
      <CharString index="143">
        -107 -91 830 hstem
        80 336 vstem
        return
      </CharString>
      <CharString index="144">
        rlinecurve
        10 -122 5 -104 -193 vvcurveto
        return
      </CharString>
      <CharString index="145">
        20 callsubr
        endchar
      </CharString>
      <CharString index="146">
        hstemhm
        272 88 hintmask 10110000
        278 return
      </CharString>
      <CharString index="147">
        198 hstem
        75 431 vstem
        75 return
      </CharString>
      <CharString index="148">
        186 hstem
        475 186 vstem
        return
      </CharString>
      <CharString index="149">
        114 -26 83 hstemhm
        90 432 return
      </CharString>
      <CharString index="150">
        9 10 -21 27 83 return
      </CharString>
      <CharString index="151">
        -25 -20 -62 hvcurveto
        return
      </CharString>
      <CharString index="152">
        99 9 rlineto
        return
      </CharString>
</ttFont>
